<?xml version="1.0" encoding="utf-8"?>
<!-- Generator: Adobe Illustrator 21.1.0, SVG Export Plug-In . SVG Version: 6.00 Build 0)  -->
<svg version="1.1" id="Layer_1" xmlns="http://www.w3.org/2000/svg" xmlns:xlink="http://www.w3.org/1999/xlink" x="0px" y="0px"
	 viewBox="0 0 211 358.6" style="enable-background:new 0 0 211 358.6;" xml:space="preserve">
<style type="text/css">
	.st0{fill:#FFFFFF;}
</style>
<g id="Layer_1_1_">
</g>
<g id="Layer_2">
	<g>
		<path class="st0" d="M72.5,242C72.6,242,72.6,241.9,72.5,242L72.5,242z"/>
		<path class="st0" d="M92.3,211C92.3,211,92.4,210.9,92.3,211C92.3,210.9,92.3,210.9,92.3,211c0,0,0.2,0,0.3-0.1
			C92.5,210.9,92.4,210.9,92.3,211z"/>
		<path class="st0" d="M91.8,211.1c-0.1,0-0.2,0.1-0.4,0.2C91.6,211.2,91.7,211.2,91.8,211.1L91.8,211.1z"/>
		<path class="st0" d="M76.1,220c-0.1,0.1-0.1,0.1-0.2,0.2C76,220.1,76,220,76.1,220L76.1,220z"/>
		<path class="st0" d="M91.9,211.1c0.1,0,0.2,0,0.3-0.1C92.1,211,92,211.1,91.9,211.1z"/>
		<path class="st0" d="M89.9,212.1L89.9,212.1L89.9,212.1C89.8,212.1,89.8,212.1,89.9,212.1z"/>
		<path class="st0" d="M77.3,219c0,0,0.1-0.1,0.2-0.1C77.4,218.9,77.4,218.9,77.3,219z"/>
		<path class="st0" d="M78.4,218.1C78.4,218,78.5,218,78.4,218.1C78.5,218,78.5,218,78.4,218.1z"/>
		<path class="st0" d="M90.3,214.1C90.3,214.1,90.3,214,90.3,214.1C90.3,214,90.3,214.1,90.3,214.1z"/>
		<path class="st0" d="M91.8,214.3L91.8,214.3c0.1-0.1,0.2-0.1,0.3-0.2C92,214.1,91.9,214.2,91.8,214.3L91.8,214.3z"/>
		<path class="st0" d="M146,264.6L146,264.6L146,264.6L146,264.6z"/>
		<path class="st0" d="M147.5,267.9C147.5,267.8,147.5,267.8,147.5,267.9c-0.1,0.3-0.3,0.7-0.4,1.1c0-0.1,0-0.1,0.1-0.3
			c-0.1,0.1-0.7,1.2-0.8,1.3c-0.3,0.4-0.5,0.8-0.7,1.2c-0.3,0.8-0.4,1.6-0.8,2.3c-0.8,1.5-0.8,1.6-0.8,1.7c-0.1,0-0.1,0-0.1,0.1
			c-0.1,0.4-0.2,0.7-0.5,1.1c0.1,0,0.1,0,0.1,0c0,0.1,0,0.1,0,0.1c0.1,0,0.1,0,0.1,0c0.1,0.1,0.1,0.2,0.1,0.2c1.2-1.1,3.2-6,3.6-7.4
			c0.1-0.1,0.2-0.3,0.2-0.4c0.2-0.7,0.3-1.5,0.4-2.2c0-0.1,0-0.2,0-0.3c-0.2,0.4-0.3,0.8-0.4,1.1
			C147.6,267.7,147.5,267.8,147.5,267.9z"/>
		<path class="st0" d="M146.1,264.5c0,0,0,0.1-0.1,0.1h0.1V264.5z"/>
		<path class="st0" d="M147.5,271.4c0.1,0,0.1-0.1,0.1-0.1c0-0.1,0.1-0.2,0.1-0.3l-0.1,0.1L147.5,271.4z"/>
		<path class="st0" d="M146,264.6c0,0.1,0,0.1,0,0.2C146,264.7,146.1,264.7,146,264.6z"/>
		<path class="st0" d="M114,298.3L114,298.3c-0.2,0-0.2,0-0.2,0h-0.1c-0.1,0-0.1,0-0.1,0h-0.1c-0.1,0-0.1,0-0.1,0h-0.1h-0.1
			c-0.2-0.1-0.3,0-0.5,0v-0.1c-0.3,0-0.7,0.1-1.1,0.2s-0.8,0.1-1.1,0.1l-2.2,0.2c-0.5,0.1-1.1,0.1-1.6,0.2c-0.4,0-0.7,0.1-1.1,0.1
			c-0.1,0-0.6,0-1.4,0.3c0.4,0,0.8,0,1.1,0c0.5,0,1.1,0,1.6,0c1.1-0.1,1.1-0.1,1.7-0.1c1-0.1,1.4-0.1,1.9-0.2
			c1.5-0.2,2.9-0.5,4.4-0.8c0,0,0,0-0.1,0C114.5,298.2,114.2,298.2,114,298.3z"/>
		<path class="st0" d="M147.1,271.9c-0.1,0.1-0.1,0.2-0.1,0.3C147.1,272.1,147.1,272,147.1,271.9z"/>
		<path class="st0" d="M114.9,298.2c0.2,0,0.3,0,1.4-0.3h0.1c0.3-0.1,0.3-0.1,0.3-0.1c-0.2,0-0.3,0.1-0.5,0.1
			C115.8,298,115.3,298.1,114.9,298.2z"/>
		<path class="st0" d="M76.4,219.6c-0.1,0.1-0.2,0.2-0.3,0.3C76.2,219.8,76.3,219.8,76.4,219.6z"/>
		<path class="st0" d="M75.4,246.1C75.3,246.1,75.3,246.1,75.4,246.1C75.3,246.1,75.3,246.1,75.4,246.1
			C75.3,246.1,75.3,246.1,75.4,246.1z"/>
		<path class="st0" d="M76,220L76,220C76.1,220,76.1,219.9,76,220C76.1,220,76,220,76,220z"/>
		<path class="st0" d="M146.6,266.8c0,0.1,0,0.1,0,0.2v0.1c0-0.1,0.1-0.2,0.1-0.2L146.6,266.8L146.6,266.8z"/>
		<path class="st0" d="M146.8,267.3c0.1,0,0.1,0,0.1-0.1C146.8,267.2,146.8,267.3,146.8,267.3z"/>
		<path class="st0" d="M82.9,247.7v0.1c0,0,0,0,0.1,0C83,247.7,83,247.7,82.9,247.7z"/>
		<path class="st0" d="M83.1,247.8C83.1,247.8,83,247.8,83.1,247.8C83,247.9,83,247.8,83.1,247.8z"/>
		<path class="st0" d="M83.4,248.1C83.5,248.2,83.5,248.2,83.4,248.1C83.5,248,83.5,248,83.4,248.1z"/>
		<path class="st0" d="M83.6,249.5v-0.1c0-0.1-0.1-0.1-0.1-0.1S83.5,249.4,83.6,249.5c-0.1,0.1,0,0.1,0,0.2V249.5z"/>
		<path class="st0" d="M83.1,248c0-0.1,0-0.1,0-0.2C83,247.8,83,248,83.1,248z"/>
		<path class="st0" d="M78.7,243.6C78.7,243.7,78.8,243.7,78.7,243.6L78.7,243.6z"/>
		<path class="st0" d="M78.7,243.4c0,0.1,0,0.2,0,0.2C78.8,243.6,78.7,243.5,78.7,243.4z"/>
		<path class="st0" d="M81.9,247.4c-0.1-0.1-0.1-0.1-0.2-0.1C81.8,247.4,81.8,247.4,81.9,247.4z"/>
		<path class="st0" d="M80.5,246.5c0,0.1,0,0.1,0,0.2c0,0,0,0.1,0,0.2c0.1,0,0.2,0.1,0.4,0.1c0.1,0,0.2,0,0.3,0
			c0.2,0,0.3-0.1,0.3-0.2c0-0.1,0-0.1,0-0.1c-0.3-0.1-0.5-0.2-0.8-0.2C80.5,246.5,80.5,246.5,80.5,246.5z"/>
		<path class="st0" d="M83.7,249.1c0-0.1,0-0.1-0.1-0.1C83.6,249,83.6,249.1,83.7,249.1z"/>
		<path class="st0" d="M78.4,243.5C78.5,243.5,78.5,243.4,78.4,243.5L78.4,243.5z"/>
		<path class="st0" d="M88.9,226.8L88.9,226.8c-0.1,0.2,0,0.3,0,0.3c0,0.1,0.2,0.1,0.3,0.1c0,0.2,0,0.2,0.2,0.2
			c0.1-0.1,0.1-0.2,0.2-0.2s0.2-0.1,0.2-0.1c-0.2-0.1-0.3-0.1-0.5-0.1c0,0,0.1-0.2-0.2-0.1c0-0.1,0.1-0.2,0.1-0.3
			C89.1,226.7,89,226.7,88.9,226.8z"/>
		<path class="st0" d="M88.4,227.7c0.1,0,0.1,0,0.2,0c0,0,0.1,0,0.1-0.1h-0.1L88.4,227.7L88.4,227.7z"/>
		<path class="st0" d="M92.5,227L92.5,227C92.5,226.9,92.4,226.9,92.5,227z"/>
		<path class="st0" d="M90.1,227.5c-0.1,0-0.1,0.1-0.1,0.1C90.1,227.5,90.2,227.5,90.1,227.5L90.1,227.5z"/>
		<path class="st0" d="M83.4,248.8c0,0,0,0.1,0,0.2c0.1,0,0.1,0,0.1,0c0.1-0.1,0.1-0.1,0.1-0.2h0.1c0.1,0,0.1-0.1,0.1-0.1
			c-0.1,0-0.1-0.1-0.2-0.2c-0.1,0.2-0.1,0.2-0.2,0.2C83.4,248.8,83.4,248.8,83.4,248.8z"/>
		<path class="st0" d="M84.7,229.9C84.8,229.9,84.7,229.8,84.7,229.9L84.7,229.9z"/>
		<path class="st0" d="M77.6,245.7c-0.1-0.1-0.2-0.2-0.2-0.2c0,0.1,0.1,0.2,0.2,0.3V245.7z"/>
		<path class="st0" d="M75.6,242.4C75.6,242.3,75.6,242.3,75.6,242.4L75.6,242.4z"/>
		<path class="st0" d="M76.3,241.4c0-0.1,0-0.2,0-0.3c0.1-0.2,0.1-0.4,0.1-0.6c0-0.2,0-0.2,0-0.2c-0.1,0-0.1,0-0.2,0.3
			c0,0.1,0,0.1,0,0.1c-0.1-0.1-0.1-0.1-0.1-0.1c0,0.1,0,0.1,0,0.1c0,0.2,0.1,0.3,0.1,0.4S76.2,241.4,76.3,241.4
			C76.3,241.5,76.3,241.4,76.3,241.4z"/>
		<path class="st0" d="M76.5,239.1L76.5,239.1L76.5,239.1C76.5,239.1,76.5,239.2,76.5,239.1c-0.1,0.1-0.1,0.1-0.1,0.2
			c0.1,0,0.3,0,0.4,0C76.7,239.2,76.6,239.2,76.5,239.1z"/>
		<path class="st0" d="M75.6,238.5c0,0,0,0-0.1,0.1l-0.1,0.1c0.1,0.1,0.1,0.1,0.1,0.2c0.1-0.1,0.1-0.1,0.1-0.2
			S75.6,238.6,75.6,238.5z"/>
		<path class="st0" d="M77.6,244c0-0.1,0.1-0.1,0.1-0.1C77.8,243.9,77.7,244,77.6,244c0.2,0.1,0.4,0,0.4-0.2c-0.2,0-0.3,0-0.4,0
			C77.6,243.9,77.6,243.9,77.6,244z"/>
		<path class="st0" d="M73.5,244.4C73.5,244.3,73.5,244.4,73.5,244.4C73.6,244.3,73.6,244.3,73.5,244.4
			C73.5,244.3,73.5,244.3,73.5,244.4z"/>
		<path class="st0" d="M73.2,242.6c0,0,0.1,0,0.2,0s0.1-0.1,0.1-0.1c0-0.1,0-0.1,0-0.2c0,0-0.1-0.1-0.2-0.1s-0.1,0.1,0,0.3
			C73.2,242.5,73.2,242.6,73.2,242.6z"/>
		<path class="st0" d="M77,241.8c0-0.1,0-0.1-0.1-0.1C76.9,241.7,76.9,241.7,77,241.8z"/>
		<path class="st0" d="M76.9,239.8C76.9,239.8,76.9,239.9,76.9,239.8c0.1,0,0.1-0.1,0-0.1C76.9,239.8,76.9,239.8,76.9,239.8z"/>
		<path class="st0" d="M78,243.7C78,243.6,78,243.6,78,243.7C77.9,243.6,77.9,243.6,78,243.7C78,243.7,78,243.6,78,243.7z"/>
		<path class="st0" d="M77.7,242.7L77.7,242.7c0.1-0.1,0.1-0.1-0.1-0.2C77.6,242.5,77.6,242.6,77.7,242.7z"/>
		<path class="st0" d="M91.7,217c0-0.1,0-0.1-0.1-0.2c0,0.1-0.1,0.1-0.1,0.2C91.6,217,91.7,217,91.7,217z"/>
		<path class="st0" d="M77.8,241.5c0,0-0.1,0.1,0,0.2C77.8,241.6,77.8,241.6,77.8,241.5z"/>
		<path class="st0" d="M77,240.3c0.1,0,0.1-0.1,0-0.1V240.3z"/>
		<path class="st0" d="M77.1,239.4c0,0-0.1,0.1-0.1,0.2h0.1V239.4z"/>
		<path class="st0" d="M77.2,240.7C77.1,240.8,77.1,240.8,77.2,240.7C77.2,240.8,77.2,240.8,77.2,240.7
			C77.2,240.8,77.2,240.7,77.2,240.7z"/>
		<path class="st0" d="M83.3,251.1c0.1,0.1,0.1,0,0.1,0.1s0,0.1,0.1,0.1c0-0.1,0-0.1,0-0.1C83.5,251.1,83.4,251,83.3,251.1
			L83.3,251.1z"/>
		<path class="st0" d="M83.6,252.8L83.6,252.8l0.1-0.1C83.5,252.7,83.5,252.7,83.6,252.8L83.6,252.8z"/>
		<path class="st0" d="M91.7,216.8C91.7,216.7,91.7,216.7,91.7,216.8L91.7,216.8L91.7,216.8z"/>
		<path class="st0" d="M84.3,251.2c0,0.2,0,0.2,0.1,0.1C84.4,251.3,84.4,251.2,84.3,251.2z"/>
		<path class="st0" d="M80.8,252.7c0-0.1-0.1-0.1-0.1-0.2L80.8,252.7C80.8,252.8,80.8,252.7,80.8,252.7z"/>
		<path class="st0" d="M82.8,253.6c0.2,0,0.3,0,0.5,0c0-0.2,0.1-0.3,0.1-0.5c-0.2,0-0.3,0-0.4,0c0,0.3,0,0.4-0.1,0.4
			C82.9,253.5,82.8,253.5,82.8,253.6z"/>
		<path class="st0" d="M95.5,279.8C95.5,279.7,95.6,279.7,95.5,279.8C95.6,279.7,95.6,279.7,95.5,279.8
			C95.5,279.7,95.4,279.6,95.5,279.8z"/>
		<path class="st0" d="M81.3,252.7c0,0,0.3,0.2,0.3,0.1c0-0.1,0-0.2-0.1-0.1C81.5,252.7,81.4,252.7,81.3,252.7z"/>
		<path class="st0" d="M79.1,251.4C79.1,251.5,79.1,251.4,79.1,251.4S79.1,251.3,79.1,251.4C79.1,251.3,79.1,251.4,79.1,251.4z"/>
		<path class="st0" d="M83.6,250.8c0.1-0.1,0.1-0.2,0-0.3c-0.1,0.1-0.1,0.1-0.1,0.2C83.5,250.7,83.6,250.7,83.6,250.8z"/>
		<path class="st0" d="M69.2,246.1c0,0.2,0,0.2,0.1,0.2s0.1,0,0.1-0.1C69.4,246.2,69.4,246.1,69.2,246.1L69.2,246.1z"/>
		<path class="st0" d="M95.8,214.3C95.9,214.2,95.8,214.2,95.8,214.3L95.8,214.3z"/>
		<path class="st0" d="M86,212.6L86,212.6C86,212.7,86,212.7,86,212.6z"/>
		<path class="st0" d="M70.1,249.2C70.1,249.1,70,249,70.1,249.2c-0.1-0.1-0.1-0.1-0.2-0.1s0,0,0,0.1c0,0,0.1,0.1,0.2,0.1V249.2z"/>
		<path class="st0" d="M70.4,244.4c-0.1,0-0.1,0.1,0,0.2C70.4,244.5,70.4,244.5,70.4,244.4L70.4,244.4z"/>
		<path class="st0" d="M91.3,216.9c-0.2,0.2-0.1,0.2,0,0.2C91.4,216.9,91.4,216.9,91.3,216.9L91.3,216.9z"/>
		<path class="st0" d="M92.7,218.9c-0.2,0-0.2,0-0.3,0.1C92.5,219,92.6,218.9,92.7,218.9z"/>
		<path class="st0" d="M114.9,221.7c0,0,0,0.1,0,0.2h-0.1c0,0,0,0.1,0,0.2c0.1,0.1,0.2,0.1,0.3,0v0.1c-0.1,0-0.1,0.1-0.2,0.1
			l0.1,0.1c0.1,0,0.1,0,0.1,0c0.1-0.1,0.1-0.1,0.1-0.2c0,0.1,0.1,0.1,0.1,0.2v0.1c0.1,0,0.1,0,0.1,0c0-0.1,0-0.2-0.1-0.3
			c0,0,0,0,0.1,0h0.1c0,0.1,0.1,0.2,0.1,0.3s-0.1,0.3,0.3,0.6c0,0.1,0,0.1,0,0.2v-0.1l0,0c0.2,0.2,0.6,0.4,1.2,0.7
			c0.1,0.4,0.1,0.5,0.3,0.5h0.1v0.1c-0.1,0-0.1,0-0.1,0c0.1,0.1,0.1,0.2,0.1,0.3h-0.6c0,0.1,0.1,0.2,0.2,0.2c0,0,0,0.1-0.1,0.1
			c0,0.1,0,0.1,0.2,0v0.1c-0.1,0.1-0.3,0.2-0.4,0.2c0.1,0,0.1,0.1,0.2,0.2c0.1,0,0.1,0,0.2-0.1c0,0.1,0.1,0.1,0.2,0.1
			s0.1,0.1,0.2,0.1s0.2,0,0.3-0.1c0.1,0.3-0.2,0.2-0.4,0.2h-0.1v0.1h-0.1c0,0,0,0.1,0,0.2c-0.1,0.1-0.2,0.2-0.4,0.3
			c0.2,0.1,0.2,0,0.3-0.1c0.1,0,0.1-0.1,0.2-0.1c0.1,0.1,0.3,0.1,0.4,0.1c0-0.1,0-0.3,0.1-0.3h0.3c0.1,0.3,0.2,0.5,0.4,0.7
			c-0.2,0-0.4,0-0.6,0.1c-0.1-0.1-0.1-0.1-0.2-0.2h-0.1c-0.3,0-0.5,0.1-0.7,0.3c0,0.1,0.1,0.1,0.2,0.1v0.1c0.5,0.2,0.9,0.4,1.4,0.5
			c0,0,0,0.1,0,0.2h0.1l0.1,0.1c0.1,0,0.3,0.1,0.4,0.1s0.1,0.1,0.2,0.2h-0.1c0.1,0,0.1,0.1,0.1,0.1c0.1,0,0.2,0.1,0.3,0.2
			c0,0,0,0-0.1,0c0.1,0.5,0.2,0.9,0.1,1.4c-0.2,0-0.5,0-0.7,0.1c0,0-0.1-0.1-0.2-0.1c-0.2,0.1-0.5,0.1-0.8,0.1h-0.2
			c0,0-1.3-0.2-1.4,0.2c-0.2,0.1-0.4,0.2-0.5,0.3c0.2,0.1,0.2,0.1,0.2,0.3h0.1c0.1,0.3,0.4,1.5,0.4,1.5v0.5
			c-0.1,0.1-0.1,0.1-0.1,0.6c0.2,0,0.2,0,0.2,0.2c0.1-0.1,0.1-0.1,0.2-0.1c0,0.1,0,0.1,0,0.1c0.1,0,0.1,0,0.1,0
			c0.1,0.3,0.1,0.7,0.1,1c0.2-0.2,0.4-0.2,0.6-0.1h0.1c0-0.2,0-0.2,0.1-0.2h0.1c0.1,0,0.1,0,0.1,0h0.1c0.1,0,0.1,0,0.1,0
			c0.2,0,0.3,0.1,0.3,0.3c0.3,0,0.2,0.4,0.5,0.4c0-0.1,0.1-0.1,0.1-0.1c0.1-0.1,0.2-0.2,0.3-0.3c0.2,0,0.2,0,0.2-0.1
			c0.1-0.2,0.4,0,0.6,0c0-0.1,0-0.1,0.3-0.1v0.1c0,0,0-0.1,0.1-0.1c0,0,0.1,0,0.2,0c0-0.1,0-0.1,0-0.1l0.1-0.1c0-0.1,0-0.1,0-0.2
			c0.1-0.1,0.2-0.1,0.2-0.2h0.1c0.1,0,0.1,0,0.1,0h0.1c-0.1,0-0.1-0.1-0.1-0.1s0.1,0,0.1-0.1s-0.1-0.1-0.1-0.2
			c0-0.3,0.5-0.5,0.2-0.6c-0.6-0.2-0.1-0.9-0.1-0.9c0-0.2,0.1-0.3,0.2-0.3c0,0-0.1-0.1-0.1-0.2c0.2-0.1,0.4-0.2,0.6-0.3
			c0-0.1,0-0.2,0-0.2c0.2-0.1,0.3-0.2,0.4-0.3c-0.1,0-0.1-0.2-0.1-0.3c-0.2-0.3-0.2-0.3-0.2-0.5c0.4-0.3,0.4-0.3,0.6-0.2h0.3
			l0.1,0.1c0.4-0.1,0.8-0.3,1.1-0.6v-0.4c0.8,0,1.5,0.4,1.8,1.1l0.1-0.1c0.6,0.3,1.3,0.6,1.9,1h0.1c0.1,0,0.1,0,0.2,0.1
			c0.1,0.1,0.1,0.1,0.1,0.1h0.1l0.1,0.1c0,0,0,0,0.1-0.1l0.5,0.5c0.1,0,0.2,0.1,0.2,0.2c0,0.1,0,0.2,0,0.2c-0.1,0-0.1,0-0.1,0
			l0.1,0.1l-0.1,0.1l0,0c0,0.1-0.1,0.1-0.1,0.1s-0.1,0.1-0.2,0.1c-0.1,0.1-0.2,0.2-0.3,0.2c-0.1,0.1-0.2,0-0.2,0
			c-0.1-0.1-0.1-0.1-0.2-0.1l-0.1,0.1c-0.1,0-0.1,0-0.2,0c-0.1,0.2,0,0.4,0.5,0.3c0.1,0,0.3,0.1,0.4,0.1c0,0,0.1,0.1,0.2,0.1
			c0.1,0,0.1,0,0.2,0l0.1,0.1c0.1,0.1,0.1,0.1,0.2,0.1h0.1c0,0,0-0.1,0-0.2l-0.3-0.4v-0.2c0.1,0.1,0.1,0.1,0.2,0c0,0,0,0,0-0.2
			c0-0.1,0-0.1,0.1-0.2c-0.1-0.1-0.1-0.2-0.1-0.3c0.1-0.1,0.1-0.2,0.2-0.2c-0.1-0.1-0.1-0.2-0.2-0.3c-0.2,0-0.3-0.1-0.4-0.2
			c0-0.1,0-0.1,0-0.1s0-0.1,0-0.2v-0.2c0.1,0,0.1,0.1,0.2,0.1c0,0,0.1,0,0.2,0c0.1,0,0.1,0.1,0.2,0.2c0.1,0,0.1,0,0.2,0
			c-0.1-0.1-0.1-0.1-0.1-0.2s0-0.1,0-0.1c-0.5-0.3-1.7-0.1-1.5-0.9c-0.6-0.1-1.2-0.4-1.7-0.9c-0.8-0.4-0.8-0.4-0.9-0.8
			c-0.1-0.1-0.1-0.1-0.2-0.2c0.1-0.2,0.2-0.3,0.4-0.4h0.1c-0.1,0.1-0.1,0.3,0.3,0.5c0.1,0,0.1-0.1,0.1-0.2s0-0.1,0-0.1h0.1v0.3
			l0.1,0.1v-0.1l0.1-0.1c0,0,0.1,0.1,0.2,0.3h0.1c0.1,0.1,0.3,0.2,0.4,0.3c-0.1,0-0.2-0.1-0.3-0.1c0,0.1,0,0.2,0.1,0.2
			c0,0.1,0.1,0.1,0.2,0c0.3,0.1,0.3,0.1,0.4,0.1c0,0.1,0.1,0.1,0.1,0.1v0.1c0,0.1,0.1,0.1,0.1,0.1v-0.1c0,0,0.1,0.1,0.2,0.1v0.1
			c0.1,0.1,0.1,0.1,0.2,0.2c0.6-0.3,0.6-0.3,1.7,1.4c0.2,0.1,0.3,0.1,0.4,0.2c-0.1,0-0.1,0-0.1,0.1h0.2l0.1,0.1
			c0.1,0.1,0.1,0.2,0.2,0.2c0.1,0.1,0.3,0.1,0.4,0.2c-0.1,0-0.1,0-0.2,0c0.1,0.1,0.1,0.2,0.1,0.3c0.1,0,0.1,0,0.1-0.2
			c0.2,0.2,0.2,0.2,0.3,0.3c0.1,0,0.1,0,0.2-0.1c0,0.1,0,0.2,0,0.2s0,0.1,0,0.2c0.1,0.1,0.2,0.2,0.3,0.3c0,0.2,0.1,0.3,0.2,0.4
			c0,0,0,0,0.1,0c-0.1,0-0.1-0.1-0.1-0.2c0.1,0.1,0.2,0.3,0.3,0.4c0-0.1-0.1-0.1-0.1-0.2c0.1,0,0.2,0,0.3,0.1h0.1
			c0-0.1-0.1-0.2-0.2-0.3c-0.1-0.1-0.1-0.2-0.2-0.3c0,0.1,0,0.1,0,0.1c-0.1,0-0.2-0.1-0.2-0.2c0.2-0.1,0.2-0.1,0.2,0
			c0.1-0.1,0.1-0.1,0.1-0.1c0,0.1,0.1,0.2,0.2,0.2c-0.2-0.4-0.2-0.4-0.3-0.4c0-0.2,0.1-0.1,0.1-0.1c0.1,0.1,0.1,0.1,0.2,0.2
			c0.1,0,0.1-0.1,0.1-0.1c-0.1-0.1-0.1-0.1-0.2-0.1c0-0.1-0.1-0.2-0.2-0.3v-0.1l0,0c0,0,0,0-0.1,0l-0.1-0.1h-0.1l0,0h-0.1
			c-0.1,0-0.1-0.1-0.1-0.1h0.1l0,0c0-0.1,0-0.1,0.1-0.1c-0.6-0.6-0.6-0.6-0.6-0.6c-0.1,0-0.1-0.1-0.1-0.2c0.1,0.1,0.2,0.1,0.2,0.2
			h0.1h0.2l-0.1-0.1h0.1h0.1l0,0c0,0,0,0,0-0.1c0,0-0.1,0,0,0h-0.1c-0.1,0-0.1,0-0.1,0l-0.1-0.1v-0.2l0.1-0.1c0.1,0,0.1,0.1,0.1,0.1
			c0-0.1,0.1-0.1,0.1-0.2h0.4c0.1,0.1,0.3,0.2,0.5,0.1v-0.3c0.1-0.1,0.2-0.1,0.3-0.2h0.3l0.1,0.1l-0.1,0.1c0,0.1,0.1,0.1,0.1,0.1
			c-0.1,0-0.1,0.1-0.1,0.1h-0.4l0.1,0.1c-0.1,0-0.3,0-0.5,0.1v0.1c0.1,0.2,0.2,0.4,0.3,0.5c0.1,0,0.1-0.1,0.2-0.1
			c0.1,0.3,0.3,0.6,0.5,0.8l-0.2-0.1c0,0.2,0,0.2,0,0.2c0.1,0,0.2,0.1,0.3,0.2l0,0v0.1l0,0c0,0,0,0,0.1,0c0.1,0.1,0.1,0.1,0.2,0.2
			l0.1,0.1c0,0.1,0,0.1,0,0.2s0,0.1,0,0.1c0.1,0,0.1-0.1,0.2-0.1c0,0,0,0,0,0.1l0,0h0.1c0,0.1,0.1,0.1,0.1,0.2
			c0-0.1,0.1-0.1,0.1-0.2c0.2,0.2,0.5,0.2,0.8,0.2c0-0.1,0-0.3-0.1-0.4c0.1,0,0.1-0.1,0.2-0.1c0.3,0.1,0.5,0.2,0.7,0.4
			c0.4-0.2,0.4-0.2,0.4-0.6h0.4c0-0.1,0-0.1,0-0.2c0.1,0,0.1,0.1,0.2,0.1c0.2,1.2,1.5,1.9,1.5,3.1c0.1,0,0.1,0.1,0.1,0.1
			s0.1,0.1,0.1,0.2c0,0-0.1,0-0.1-0.1c0,0,0-0.1-0.1-0.2c0,0.3-0.1,0.5-0.2,0.9c-0.1,0-0.2,0-0.3,0.1c-0.6-0.4-0.9-0.3-1.1,0.4
			l-0.2,0.1c-0.1,0-0.1-0.1-0.2-0.1c-0.1,0-0.1,0-0.2,0c-0.3-0.2-0.6-0.3-0.9-0.2c0,0.1-0.1,0.1-0.1,0.2l-0.3-0.3h-0.8l-0.1-0.1
			c-0.6,0-1.3,0-1.1,0.9v0.1c0.3,0.3,0.3,0.6,0.1,0.9c-0.2,0.1-0.2,0.1-0.7-0.2h-0.2c-0.1,0-0.2-0.1-0.3-0.1H132
			c-0.4-0.1-0.3-0.6-0.7-0.7c-0.7-0.2-1.5,0-2.2-0.3c-0.1-0.1-0.1-0.1-0.1-0.2c-0.1,0-0.1,0-0.2,0c-0.2-0.1-0.3-0.2-0.5-0.3
			c0.1-1,0.1-1-0.3-1.5c0.1-0.2,0.1-0.4,0.1-0.6h-0.4l-0.1-0.2c-0.1-0.1-0.3-0.1-0.4-0.1c-0.1,0.1-0.1,0.2-0.2,0.3
			c-0.1,0-0.3,0-0.5,0.1c-0.1,0-0.2-0.1-0.2-0.1c-0.6,0.2-1.2,0.3-1.9,0.3c0,0.1-0.1,0.1-0.1,0.2h-0.4l-0.1,0.2
			c-1.6,0.1-2.8,2.2-4.5,0.9c-0.1,0.1-0.1,0.1-0.2,0.1c0,1.6-2.9,2.7-1.5,4.1c0,0.6,0,0.6-1.4,1.8H116c-0.1,0-0.1,0-0.1,0h-0.2
			c-0.1,0-0.1,0-0.1,0c0,0.1-0.1,0.2-0.2,0.3v0.2c0,0-2.1,3.6-2.1,4.8c0.1,0.1,0.1,0.2,0.2,0.3c0.4,0.2,0.7,2.2,0.3,3v0.3
			c-0.2,0.3-0.5,1.5-0.5,1.5c0.3,0.2,0.4,0.6,0.5,0.9c-0.1,0-0.2,0.1-0.2,0.1c0,0.4,0.2,0.9,0.5,1.2c0.2,0,0.4-0.1,0.6-0.2l-0.1,0.1
			c0,0.4,0.1,0.7,0.4,0.9c1,0.6,1.6,1.5,1.5,2.1c1.3,0.5,2.2,1.8,3.6,2.3c0.3,0.1,0.3,0.1,1.5-0.6c0.1,0,0.1,0,0.1,0h0.2
			c0.4-0.2,0.9-0.3,1.4-0.2h0.1v0.2c0.7,0.1,0.7,0.1,0.8,0.2c0.6-0.3,1.2-0.6,1.7-1h0.3c0-0.1,0-0.1,0-0.2c0.4-0.4,1-0.5,1.5-0.5
			l0.1-0.1c0.1,0.1,0.1,0.1,0.2,0.1s0.1,0,0.1,0c0.1,0,0.1,0,0.1,0h0.1c0.1,0,0.1,0,0.1,0h0.1c0.1,0,0,0,0.1,0s0.1,0,0.1,0
			c0.7,0.3,0.5,1.2,1.2,1.5c0.5-0.1,1.1-0.3,1.5-0.6c0.1,0.1,0.1,0.1,0.1,0.2c0.1,0,0.1,0,0.2,0c0.1,0.1,0.2,0.3,0.3,0.4
			c0,0-0.1,0.1-0.1,0.2c0.1,0.1,0.2,0.3,0.3,0.4c0,0.1-0.1,0.2-0.1,0.3c0.1,0.6,0,1.2-0.1,1.7l-0.1,0.1c0.1,0.1,0.1,0.2,0.2,0.3
			c-0.1-0.1-0.1-0.1-0.2-0.1c0,0.3-0.1,0.7-0.3,0.9c0.2,0.9,0.6,1.7,1.3,2.2c0,0.1,0.1,0.4,0.7,1.7c0,0-0.1,0-0.1,0.1
			c0.1,0.2,0.2,0.4,0.3,0.6c0.1,1.1,0.2,2.3,0.1,3.5c-0.2,1.3-1.5,2.1-1.7,3.5c0,0.2-0.1,0.4-0.1,0.6l-0.1,0.4l0,0
			c-0.1,1.1,0,1.8,0.6,2.9c-0.4,1.1-0.6,2.3-0.6,3.5c0.4,0.3,0.7,1.1-0.4,3.2c0.1,0,0.2,0,0.2,0c0,0.1,0,0.2,0,0.2
			c0.1,0,0.1,0,0.2,0c0.1,0,0.1,0,0.1,0.1c0.9,0,1.4-0.8,2.3-0.8h0.1c0.8,0,1.7-1,4.2-3.7c0.4-0.4,0.7-0.9,1-1.3l0,0l0.1-0.2
			l0.1-0.1l0,0l0.1-0.1l0,0l0,0l0,0l1.6-2c0.6-0.6,0.3-1.6,0.7-2.3c0.9-1.7,2.6-2.9,3.2-4.8c0,0,0.8-2.6,0.4-3c0-1,0-1.9,0.2-2.9
			l0.1,0.1c0,0,0-0.1,0-0.2s0-0.1,0-0.2s0-0.1,0-0.1c0-0.1,0-0.2,0.1-0.3c0,0,0,0,0-0.1s0.1-0.2,0.1-0.2c-0.1,0-0.1,0.1-0.1,0.1l0,0
			c0.4-2.3,1-4.4,1.9-6.5V256c0.1-0.1,0.1-0.3,0.2-0.5c0.2-0.7,0.3-1.4,0.4-2.1V253c0.2-1.5,0.2-3.6,0.2-3.7c0-0.1,0-0.1,0-0.1
			c0-0.1,0-0.1,0-0.1c0-0.1,0-0.1,0-0.1c0-0.1,0-0.1,0-0.1v-0.2c-0.1-0.7-0.1-0.7-0.2-1.3v-0.1c-0.1,0-0.2,0-0.2,0
			c0,0.2,0,0.4-0.1,0.6l-0.3,0.3c0,0.1-0.1,0.1-0.1,0.2c-0.1,0-0.1,0-0.1,0c-0.1,0.3-0.3,0.7-0.6,0.9c-0.2-0.1-0.3-0.4-0.4-0.6
			c-0.1,0-0.1,0-0.2,0c0-0.3-0.1-0.7-0.2-1.1c-0.1-0.2-0.3-0.4-0.4-0.6c-0.2-0.3-0.4-0.5-0.7-0.6c-0.1-0.2-0.1-0.3-0.2-0.4v0.5
			c-1.7-2.9-1.7-2.9-1.8-3.3c0-0.1,0-0.1,0-0.1c0-0.1,0-0.1,0-0.1c0.4-0.1,0.8-0.3,1.1-0.4c0.2,0.1,0.3,0.2,0.4,0.4
			c0,0.1,1.9,4.6,2.2,4.9c0.4-0.5,0.7-1.1,0.8-1.7l0.1-0.1c0.2-0.3,0.3-0.6,0.3-1c0.1-0.3,0.2-0.5,0.2-0.7c-0.1-0.3-0.1-0.5-0.1-0.8
			c0.1-0.2,0.2-0.4,0.3-0.7c0-0.1,0-1,0-1c0-0.1-0.1-0.3-0.1-0.4c-0.1-0.2-0.1-0.4,0-0.5c-0.2-0.4-0.3-0.8-0.4-1.2h0.1
			c-0.1-0.6-0.2-1.1-0.4-1.7c-0.1-0.2-0.3-0.4-0.4-0.6c-0.5-0.2-0.5-0.2-1.2-1.7c0,0,0.3,1.7,0.4,1.8c-0.1,0-0.1,0-0.1,0
			c0,0.1,0,0.1,0,0.2c-0.1,0.1-0.2,0.2-0.3,0.3c-0.1-0.1-0.2-0.1-0.2-0.2v0.1c-0.2-0.4-0.4-0.8-0.5-1.2l-0.1-0.1
			c0.1,0.4,0.2,0.8,0.4,1.1c-0.2-0.2-0.4-0.5-0.6-0.8c-0.2-0.3-0.5-0.6-0.7-0.9c-0.1,0-0.1,0-0.1,0c-0.2-0.3-0.4-0.5-0.6-0.8
			c-0.2-0.1-0.4-0.3-0.3-0.6c0-0.1-0.1-0.2-0.1-0.2v-0.1h0.1c0-0.1,0-0.1,0-0.2h0.2v-0.1c0.4,0.4,0.6,1,1.1,1.4
			c0.4,0,0.6,0.2,0.8,0.5c0.1,0,0.1,0,0.1,0c0,0.1,0.1,0.1,0.1,0.1c0.1,0,0.1-0.1,0.1-0.1c0-0.1,0-0.1,0-0.2
			c0.1,0.1,0.1,0.1,0.1,0.2c0.1-0.2,0-0.3,0-0.4v0.1c-0.1-0.1-0.1-0.1-0.1-0.3h0.1c0.3,0.2,0.4,0.7,0.7,0.9c0.1,0,0.1,0.1,0.1,0.1
			c0.1-0.1,0.1-0.2,0.2-0.2c0,0.1,0,0.1,0.1,0.1l0.1-0.1c0-0.1,0-0.1,0-0.2h0.1v-0.3l0.1,0.1c0,0,0-0.1,0-0.2c0-0.1,0-0.1,0-0.1
			c0-0.1-0.1-0.1-0.1-0.2c0.3,0.3,0.4,0.8,0.7,1.1v-0.1c0.1,0.2,0.2,0.3,0.3,0.5c0-0.1,0-0.1,0-0.2c0.2,0.4,0.4,0.9,0.6,1.4
			c-0.1-0.5-0.3-0.9-0.5-1.4c0,0.1,0,0.1,0,0.1c-0.5-1.3-1-2.6-1.7-3.8c-1.1-2.1-2.4-4.2-3.9-6.1c-0.6-0.6-1.2-1.5-1.8-2.2
			c-0.1-0.2-0.3-0.3-0.4-0.5c-0.6-0.7-1.5-1.6-2.2-2.4c0-0.1,0-0.1,0-0.1c-0.1-0.1-0.2-0.2-0.3-0.3c-1.8-1.7-3.7-3.3-5.7-4.7
			c-2.7-1.9-5.5-3.4-8.6-4.6c-0.2-0.1-0.4-0.2-0.6-0.2c-0.2-0.1-0.4-0.2-0.7-0.2l0,0c-0.1,0-0.1-0.1-0.1-0.1s0,0-0.1,0l0,0
			c-0.1,0-0.2-0.1-0.3-0.1l0,0l0,0l0,0c0-0.1-0.1-0.1,0,0c-0.2-0.1-0.4-0.2-0.6-0.2l0,0h-0.1l0,0l0,0c-0.9-0.3-1.7-0.6-2.6-0.8
			l-0.8-0.2c-0.1-0.1-0.2-0.1-0.7-0.2c-0.1,0-0.3-0.1-0.4-0.1l0,0l0,0c-0.6-0.2-0.9-0.2-1.1-0.3c-0.1,0-0.1,0-0.2,0h-0.5
			c0.5,0.1,0.5,0.1,0.7,0.2h-0.3c0,0.1,0.1,0.1,0.1,0.1h-0.1c-0.1,0-0.1,0-0.2,0c0.6,0.1,1.2,0.2,1.8,0.4h0.1l0,0
			c0.1,0,0.1,0,0.2,0.1c0,0,0,0,0.1,0s0.2,0.1,0.3,0.1h0.1l0.1,0.1c0.2,0.1,1.3,0.4,1.3,0.4h0.1c0.1,0,0.2,0.1,0.3,0.2
			c0.5,0.1,1,0.2,1.4,0.3h-0.5l0.3,0.1c0.1,0,0.3,0,0.4,0.1c-0.1,0-0.2,0-0.2,0c0.2,0.1,0.5,0.2,0.7,0.2h-0.3
			c-0.3-0.1-0.7-0.2-1-0.3c0.9,0.4,1.9,0.6,2.8,1l-0.1-0.1l0.1-0.1l0,0c0.1,0.1,0.1,0.2,0.2,0.2l0,0l0,0v0.1c-0.1,0-0.1-0.1-0.2-0.1
			c-0.3-0.1-0.6-0.2-1-0.3h-0.1c-0.1,0-0.3-0.1-0.4-0.1c0-0.1,0-0.1-0.1-0.1l0.1,0.1c-0.8-0.2-1.5-0.4-1.5-0.4
			c0.6,0.3,1.2,0.6,1.8,0.8c0-0.1-0.1-0.1-0.1-0.1c0.2,0,0.4,0.1,0.6,0.2c0.2,0.1,0.5,0.2,0.8,0.3c0-0.1,0.1-0.2,0.1-0.2
			c0,0.1-0.1,0.2-0.1,0.2l0,0l0,0c-0.2,0-0.3-0.1-0.5-0.1c-0.2-0.1-0.5-0.1-0.7,0v0.1c-0.2,0-0.4-0.1-0.5-0.1
			c0.4,0.3,0.9,0.4,1.3,0.5v0.1l0.1,0.1c0,0.1-0.1,0.1-0.1,0.1c0.1,0.1,0.1,0.2,0.2,0.2c-0.1,0-0.3,0-0.4-0.1v0.1
			c0,0.1,0.1,0.1,0.1,0.1c0.1,0.1,0.1,0.1,0.1,0.1c0.1,0.2,0.2,0.4,0.3,0.5l0.1,0.1c0.1,0.1,0.2,0.1,0.3,0.2l-0.1,0.1
			c0.1,0.1,0.3,0.2,0.4,0.2c-0.1,0-0.1,0-0.2,0h-0.2c0.3,0.3,0.6,0.6,0.9,0.9c-0.3,0-0.6,0-0.8-0.1c0.2,0.3,0.7,0.2,0.9,0.5
			c-0.2,0-0.4,0-0.6-0.1c-0.2,0-0.2,0-0.4-0.1c-0.6-0.3-1.2-0.6-1.8-0.8c0.2,0,0.3,0.1,0.4,0.1c0-0.1,0.1-0.1,0.1-0.1h0.4
			c0.1,0,0.1,0,0.1,0h0.1c0.2,0,0.2,0,0.3-0.1c0-0.3,0-0.3-2.2-1h-0.7c-0.1,0-0.1-0.1-0.1-0.1c0-0.1-0.1-0.1-0.2-0.1v0.1h-0.5
			c0,0,0,0-0.1-0.1h0.1h-0.1l0,0l0,0l0,0l0,0c0,0,0,0,0-0.1c-0.3-0.1-0.3-0.1-0.4-0.1s-0.1,0-0.1,0v0.1c-0.1,0-0.3-0.1-0.4-0.1
			c0.1,0.1,0.1,0.1,0.2,0.2c-0.1,0-0.1-0.1-0.2-0.1c0,0.1,0,0.1,0.1,0.2c-0.1-0.1-0.2-0.2-0.4-0.3v0.1h-0.1c0.1,0.1,0.1,0.1,0.2,0.2
			h-0.1l0.1,0.1c-0.1,0-0.1-0.1-0.2-0.1l-0.1,0.1l0.1,0.1h0.1v0.1h-0.1c0.1,0,0.1,0.1,0.2,0.1h-0.1c0,0-0.1-0.1-0.2-0.1
			c0.1,0.1,0.2,0.3,0.3,0.4c-0.1-0.1-0.2-0.2-0.3-0.2c-0.1-0.1-0.1-0.1-0.3-0.1c0.1,0.1,0.2,0.2,0.2,0.3s0.1,0.1,0.1,0.1
			s-0.1,0-0.2,0c0,0.1,0,0.1,0.1,0.2h0.1v0.1c0,0.1,0.1,0.1,0.1,0.1c-0.1,0-0.1,0-0.1,0v0.1c-0.1,0-0.2-0.1-0.3-0.2
			c0,0.1,0,0.2,0.1,0.2h-0.1v0.1l0.1,0.1c0,0.1-0.1,0.1-0.1,0.2v0.1c0.1-0.1,0.1-0.2,0.2-0.2h0.1l0.1-0.1h0.1l0.1-0.1
			c0.1,0,0.1,0,0.2,0.1h-0.1c-0.1,0-0.1,0.1-0.1,0.1c0,0.1,0.1,0.2,0.2,0.2c0,0.1,0,0.1,0,0.2l-0.1,0.1c0,0.1,0.1,0.1,0.1,0.2l0,0
			l0.1,0.1h-0.1c0.1,0.1,0.1,0.2,0.2,0.2c0,0.1,0,0.1,0.1,0.2v0.1c0,0.1-0.1,0.1-0.2,0.1h0.2c-0.1,0.1-0.1,0.2-0.1,0.3v0.2
			c0,0-0.1-0.1-0.2-0.1s-0.1,0.1-0.1,0.1s0.1,0.1,0.2,0.1h-0.3l0.1,0.1c0,0.2-0.1,0.3-0.3,0.4c0,0,0.1,0.1,0.2,0.1
			c-0.1,0-0.1,0-0.3,0.3c0.1,0.1,0.2,0.2,0.2,0.4c0.2,0.2,0.4,0.4,0.6,0.5v0.1c0.1,0,0.2,0.2,0.3,0.3c0-0.1,0.1-0.1,0.1-0.1
			c0.1,0,0.1,0,0.1,0l0.1,0.1v0.1l0.1,0.1h-0.1c0.2,0.1,0.5,0.2,0.8,0.2h0.2c0.1-0.2,0.2-0.4,0.2-0.6c0,0,0,0.1,0.1,0.2
			c0,0.1,0,0.1,0,0.2c0.1-0.1,0.1-0.1,0.2-0.2c0,0,0,0,0,0.1c0,0,0,0,0.1,0V220c0,0,0.1,0,0.1-0.1c-0.1-0.1-0.3-0.2-0.5-0.3h0.3
			c0.1,0.1,0.1,0.1,0.2,0.2h-0.1l0.1,0.1c0.5,0.4,0.8,1,1.5,1.1v0.7c0.1,0.1,0.1,0.1,0.1,0.1h-0.1c0.2,0.1,0.5,0.4,0.5,0.4
			c0.2,0,0.4,0,0.5-0.1c-0.1-0.1-0.1-0.1-0.2-0.2c0.1-0.2,0.1-0.2,0.4-0.2v-0.1c-0.2-0.4-0.4-0.8-0.7-1.2v-0.1c0-0.1,0-0.1,0-0.1
			l0,0c0.1,0,0.1-0.1,0.1-0.1c-0.1,0-0.1-0.1-0.1-0.1h0.1c-0.2-0.3-0.5-0.6-0.9-0.7h-0.1c-0.2-0.1-0.3-0.3-0.5-0.5
			c-0.1-0.1-0.2-0.3-0.3-0.4c0-0.3,0.1-0.6,0.1-0.9c0,0-0.1-0.1-0.1-0.2c-0.2-0.1-0.4-0.3-0.4-0.6c0.1-0.1,0.2-0.1,0.3-0.2
			c0,0.1,0.1,0.1,0.1,0.1c0.1,0,0.1,0,0.1,0c0.1,0,0.2,0.1,0.3,0.2h-0.1c0.1,0.3,0.2,0.6,0.3,0.9c-0.1,0-0.1,0.1-0.1,0.1
			c0.4,0.6,1,1,1.6,1.4h-0.2c0.1,0,0.1,0.1,0.2,0.1c0.1,0.1,0.1,0.2,0.2,0.1c0,0.1-0.1,0.1-0.1,0.1c0,0.1,0,0.1,0,0.1s0.1,0,0.2,0.1
			l0.1,0.1c0-0.1-0.1-0.1-0.1-0.2c0-0.1,0-0.1,0-0.1v-0.2h-0.1c0.3-0.2,0.6-0.4,0.9-0.7c0.2,0.1,0.5,0.2,0.7,0.2h-0.1
			c0,0.1,0,0.2-0.1,0.2v0.1l-0.1,0.1c-0.2,0-0.3,0.1-0.4,0.1c0,0,0,0,0.1,0.1c-0.1,0-0.1,0-0.1-0.1c-0.4,0.1-0.6,0.2-0.2,0.5
			c0,0.1,0.2,0.2,0.3,0.2l0.1-0.1c0.2,0.2,0.4,0.4,0.5,0.7c-0.2,0-0.5-0.1-0.7-0.3c0,0-0.1,0.1-0.1,0.2v0.1c0.2,0.5,0.5,0.9,0.9,1.1
			c0,0-0.1,0-0.2,0l-0.1,0.1l0.1,0.2c-0.1,0-0.1,0.1-0.1,0.1c-0.2,0-0.2,0-0.6-0.2c-0.4,0.2-0.6,0.6-1,0.8c0.1,0,0.1,0.1,0.2,0.1
			c0,0-0.1,0-0.2,0s-0.1-0.1-0.1-0.1c-0.1-0.1-0.2-0.1-0.3-0.1c-0.1-0.1-0.1-0.1-0.1-0.1c-0.1-0.1-0.1-0.1-0.2-0.2v0.1
			c0,0.1,0,0.2-0.2,0.2c-0.1,0.2-0.2,0.3-0.4,0.3c-0.1,0-0.1-0.1-0.1-0.2c-0.3,0.2-0.5,0-0.7-0.2h0.1c-0.1,0-0.1-0.1-0.1-0.1
			c-0.1,0-0.2-0.1-0.3-0.2c0.2,0.1,0.4,0.2,0.6,0.3c0-0.1-0.1-0.5-0.5-0.4c0-0.1,0-0.2-0.1-0.3h0.1c0,0-0.1-0.1-0.1-0.2H121
			c-0.2-0.2-0.3-0.4-0.4-0.6c-0.2,0-0.2,0.2-0.2,0.3c-0.1,0.1-0.2,0.1-0.3,0.2c0.1,0.1,0.1,0.1,0.2,0.2l-0.1,0.1
			c0.3,0.4,1,0.5,1,1.2c0.1,0,0.1,0.1,0.2,0.1c0,0.1,0,0.2-0.1,0.3c-0.1-0.1-0.3-0.1-0.4,0v0.1c-0.4,0.2-0.7,0.2-0.4,0.5
			c0,0.1,0.1,0.1,0.1,0.1c-0.1,0-0.1,0.1-0.1,0.1h-0.1v-0.1c0,0-0.1-0.1-0.2-0.1v-0.1c-0.1,0.2,0.2,0.6-0.1,0.8
			c0,0.1,0.1,0.1,0.1,0.1c0,0.1-0.1,0.1-0.1,0.1v0.1c-0.2,0.1-0.4,0.2-0.5,0.3l-0.1-0.1c-0.1,0-0.2,0-0.3-0.1c0.1,0,0.1,0,0.1,0
			c-0.1-0.3,0.2-0.4,0.1-0.6c-0.1-0.1-0.1-0.3-0.7-0.2v0.1h-0.1c0-0.1,0-0.2-0.1-0.3c-0.1,0-0.1,0-0.2-0.1s-0.1-0.1-0.1-0.2
			c-0.1,0-0.2-0.1-0.2-0.2c-0.1,0-0.2-0.1-0.2-0.1c-0.2-0.1-0.3-0.2-0.5-0.2c-0.1-0.1-0.2-0.3-0.3-0.4c-0.1-0.1-0.2-0.1-0.3-0.2
			c-0.1-0.1-0.2-0.1-0.3-0.1h-0.3c0.1-0.1,0.1-0.1,0.2-0.2l-0.1-0.1c0.2-0.1,0.2-0.2,0.1-0.3s-0.1-0.1,0-0.2c0-0.1-0.1-0.3-0.4-0.2
			s-0.3,0.1-0.3,0c-0.1,0.1-0.1,0.1-0.2,0.1c0-0.1,0-0.1,0-0.2c0-0.1-0.1-0.1-0.1-0.1c0.3-0.2,0.2-0.3,0.2-0.4c-0.2,0-0.5,0-0.7,0.1
			v0.1c-0.1,0-0.1,0-0.1,0c0,0.1,0,0.1,0,0.2h-0.1C114.8,221.5,114.9,221.6,114.9,221.7z"/>
		<path class="st0" d="M73,253.1L73,253.1C73,253.2,73,253.2,73,253.1z"/>
		<path class="st0" d="M72.9,253.1L72.9,253.1C73,253.1,73,253.1,72.9,253.1z"/>
		<path class="st0" d="M84.3,290.2c0,0.1,0,0.1,0.1,0.1L84.3,290.2z"/>
		<path class="st0" d="M78.8,251.2L78.8,251.2c0,0.2,0.1,0.2,0.1,0.2C78.8,251.3,78.8,251.3,78.8,251.2z"/>
		<path class="st0" d="M99.7,267.3c-0.1,0.1-0.2,0.1-0.3,0.1c-0.1,0-0.1,0-0.1,0h-0.1c-0.1-0.1-0.2-0.2-0.3-0.2c0,0-1.3-2.4-3.7-1.9
			c-0.1-0.2-0.3-0.2-0.5-0.4c-0.1,0.1-0.2,0.1-0.3,0.1l-0.1-0.1c0,0.1-0.1,0.2-0.2,0.3c0,0,0,0,0-0.1s0-0.1,0-0.1h-0.3v0.1l-0.1-0.1
			c0,0.1-0.1,0.1-0.1,0.1c0-0.2,0.1-0.4,0.2-0.6l-0.1-0.1c0-0.1,0-0.2-0.1-0.3v-0.2c-2.3-1.4-2.4-1.2-3.1,0.1
			c-0.1-0.1-0.1-0.2-0.1-0.2c0.3-0.3,0.5-0.7,0.6-1.1c-0.5-0.1-0.9-0.2-1.4-0.2c-0.1,0.1-0.2,0.1-0.2,0.2c0-0.2,0.1-0.2,0.7-0.4
			c0-0.1,0.1-0.1,0.1-0.2h-0.3c0-0.1,0-0.1,0-0.2s0-0.1,0-0.1h-0.2c-0.1,0.2-0.2,0.4-0.4,0.5c-0.1,0-0.1-0.1-0.1-0.1
			c0.2,0,0.4-0.2,0.4-0.4c0.1-0.1,0.2-0.1,0.3-0.1c0.1-0.2,0.1-0.5,0.1-0.8h-0.3c0-0.1,0-0.2-0.2-0.3c0-0.6-0.2-1.2-0.4-1.8
			l-0.1,0.1c-0.3-0.4-0.7-0.8-1.1-1.2c-0.3-0.3-0.8-0.5-1.3-0.4c-0.4,0.1-0.9,0-1.2-0.3c-0.5-0.8-1-1.5-1.6-2.1
			c-0.1,0-0.3-0.1-0.4-0.1c-0.1-0.4-0.2-0.7-0.4-1.1c-0.2,0-0.4-0.1-0.6-0.2c0-0.1-0.1-0.2-0.1-0.3l0.1-0.1h0.4
			c-0.2-0.1-0.2-0.1-1.3-0.2l0.1,0.1h-0.3c-0.4,0.6-1-0.1-1-0.3c-1.4-0.3-1.4-0.3-1.2-0.5c-0.1-0.3-0.1-0.3-0.9-0.6
			c-0.1,0.1-0.2,0.1-0.3,0.2c-0.2,0-0.5,0.1-0.7,0.3c-0.1-0.2-0.1-0.5-0.1-0.7c0.2,0,0.4-0.1,0.5-0.3c0-0.1-0.2-0.2-0.3-0.3
			l-0.3,0.1c-0.3,0.4-0.7,0.6-1.2,0.5c-0.1,0.1-0.2,0.2-0.2,0.4l-0.1-0.1c0-0.1,0-0.1,0-0.2l-1.4,1.6c-0.1,0.2-0.2,0.5-0.1,0.7
			c-0.6-1.4-0.6-1.4-1-1.5c0,0.1-0.1,0.2,0,0.6c0.1,0.2,0.2,0.4,0.4,0.6c-0.1,0-0.1,0.1-0.2,0.2c0,0.4,0.1,0.9,0.4,1.3
			c0,0.1-0.1,0.2-0.1,0.3c0.1,0.1,0.1,0.4-0.1,0.5l0.1,0.1c-0.1,1.2-0.1,1.2,0,1.3c-0.1,0.3-0.2,0.5-0.4,0.8
			c-0.1,0.1-0.1,0.1-0.1,0.1c-0.2,0.1-0.3,0.3-0.2,0.5l-0.1,0.1c0,0.1,0,0.3-0.1,0.4h-0.1c-0.1,0-0.3,0.1-0.4,0.1
			c-0.1,0.2-0.1,0.5-0.1,0.8h-0.1c-0.1,0.1-0.1,0.3-0.1,0.5c-0.1,0-0.1,0-0.2,0c0.1,0.3,0.1,0.6,0.1,0.9c-0.1,0-0.1,0-0.1,0
			c0,0.1,0,0.1,0,0.2c0.1,0.1,0.2,0.2,0.3,0.3c0,0.1,0,0.1,0,0.1c0,0.1,0.1,0.2,0.1,0.3c0.1-0.1,0.1-0.2,0.2-0.3
			c0,0.1-0.1,0.3-0.1,0.4c-0.1,0.2-0.3,0.2-0.4,0.4c-0.2,0.4-0.2,0.4,0.1,1.6h-0.1c0,0.1,0,0.1,0,0.2c0.3,0.2,0.5,0.5,0.7,0.8
			c0.1,0.3,0.3,0.6,0.4,0.9s0.2,0.5,0.3,0.8c0.1,0,0.1,0.1,0.1,0.1v0.2l0.7,1.6c0.2,0.3,0.4,0.6,0.6,0.9v0.1c0.4,0.7,0.7,1.4,1,2.1
			c0.8,0.6,1.6,1.3,2.4,2l1,1.6c0.2,0.7,0.4,1.3,0.5,2h-0.1v0.3c0.1,0,0.2,0.1,0.2,0.2c0.1,0.3,0.2,0.7,0.3,1c-0.1,0-0.1,0-0.1,0.1
			c0,0.3,0.1,0.6,0.2,0.9c-0.2,0.6,0.7,1,0.3,1.6c0.1,0.6,0.5,1.1,0.7,1.7c0,0.3,0.1,0.5,0.2,0.7c-0.1,0.3,0,0.7,0.1,1h-0.1
			c0.2,0.3,1.1,1.6,1.6,2.4h0.1c0.1,0,0.1,0,0.1,0c0.1,0.1,0.2,0.3,0.4,0.4c0,0.5,0.7,0.8,0.7,1.4c-0.1-0.3-0.4-0.6-0.7-0.7
			c0.2,0.3,0.4,0.6,0.6,0.9l-0.1,0.1c0.1,0.1,0.1,0.2,0.2,0.2h0.1c0.2,0.1,0.3,0.1,0.4,0.2c0,0.1,0.1,0.2,0.1,0.3
			c-0.1,0-0.2-0.1-0.3-0.1c0.2,0.3,0.5,0.6,0.9,0.8h-0.1c0.1,0.1,0.2,0.2,0.3,0.3v-0.1l0.1,0.1c0.1,0.2,0.3,0.3,0.4,0.4
			s0.3,0.1,0.4,0.2c0.1,0,0.1,0.1,0.2,0.2c0,0,0,0,0.1,0.1c-0.1,0-0.1,0-0.1,0c0.1,0.1,0.1,0.1,0.2,0.1c-0.1,0-0.2,0-0.2-0.1
			c0.3,0.3,0.6,0.4,0.9,0.5l0.1,0.1c0.2,0.1,0.3,0.2,0.4,0.2l-0.1-0.1c0.2,0.1,0.3,0.2,0.5,0.2c0.2,0.2,0.4,0.3,0.6,0.3
			c0.2,0.2,0.5,0.3,0.8,0.3c0-0.1-0.1-0.2-0.2-0.2h0.3c0.1,0.1,0.3,0.1,0.4,0.1c-0.7-0.4-1.6-0.7-2.4-1c0.1-0.1,0.3-0.1,0.4-0.1
			c-0.3-0.3-0.6-0.4-0.8-0.7c0.1-0.1,0.1-0.2,0.2-0.2c-0.1-0.1-0.1-0.2-0.2-0.3l0.3-0.3c-0.2-0.6-1.6-0.4-1.3-1.2h0.1
			c0-0.1,0.1-0.1,0.1-0.1c0.1,0,0.1,0,0.1,0c0.1,0,0.1,0,0.1,0h0.1l-0.1-0.1l0.1-0.1c-0.2-0.4-0.2-0.4-0.2-0.5h0.1V289
			c0,0-0.1-0.1-0.2-0.1l0.1-0.1c0.2,0.1,0.3,0.2,0.5,0.2v0c0-0.1-0.2-0.2-0.3-0.2c0.1,0,0.1,0.1,0.1,0.1c-0.3-0.1-0.6-0.4-0.8-0.7
			c0.1,0,0.1-0.1,0.1-0.1c0.4,0.1,0.8,0.2,1.2,0.2c0.1,0,0.1-0.1,0.1-0.1c-0.1-0.2-0.2-0.5-0.4-0.7v-0.1l0.1,0.1H89
			c0.3-0.2,0.5-0.4,0.6-0.7c-0.2-0.8-1.3-0.8-1.5-1.6h0.1c0.4,0.3,0.9,0.3,1.2,0.6c0.3-0.1,1.2-0.2,1.2-0.2v-0.2c0,0,0-0.1,0.1-0.1
			h-0.1c0-0.1,0-0.1,0-0.1c0-0.1,0.1-0.1,0.1-0.1V285c0,0.1,0.1,0.1,0.1,0.2c0.1-0.3,0.2-0.6,0.4-0.8h-0.1v-0.3
			c0.1-0.1,0.2-0.3,0.3-0.5l-0.1-0.1c0.1,0.1,0.3,0.2,0.4,0.1c0,0.1,0,0.1,0,0.1c0.1,0,0.1,0.1,0.1,0.1c-0.1,0.1-0.1,0.1-0.2,0.2
			v0.1c0,0,0.1,0,0.2-0.1c0.2-0.5,0.5-0.9,0.8-1.4c0-1.2,0-1.2-0.2-1.4c0,0,0.1-0.1,0.1-0.2s0-0.1,0-0.1l0,0c1-0.9,1.1-1,1.7-0.8
			l-0.1-0.1c0.1-0.2,0.2-0.2,0.4-0.2v-0.1c0,0,0.1-0.1,0.2-0.1l0.1,0.1l0.1-0.1c0.1,0,0.2,0.1,0.3,0.1c0.3-0.1,0.6-0.1,0.9,0
			c0,0,0-0.1,0-0.2c0.6-0.5,0.6-1.4,1.3-1.8c0.1-0.2,0.1-0.5,0-0.7c0.4-0.5,0.1-1.2,0.5-1.7c-0.2-1.4-0.2-1.4,0.6-2.5
			c0.5-1.2,1.9-1.9,2-3.4C100.5,269.4,100.5,267.6,99.7,267.3z"/>
		<path class="st0" d="M82.8,287.7C82.8,287.7,82.9,287.8,82.8,287.7C82.9,287.8,82.9,287.8,82.8,287.7L82.8,287.7l-0.1-0.1
			C82.7,287.7,82.8,287.7,82.8,287.7C82.8,287.8,82.8,287.7,82.8,287.7z"/>
		<path class="st0" d="M70.3,250.2c0.1,0,0.1,0.1,0.2,0.1c-0.1-0.2-0.1-0.4-0.2-0.6c0-0.1-0.1-0.2-0.2-0.2c0,0.1,0,0.2,0,0.3
			s0,0.1,0,0.2L70.3,250.2C70.2,250.1,70.2,250.2,70.3,250.2z"/>
		<path class="st0" d="M75.8,220.3l0.1-0.1C75.8,220.3,75.8,220.3,75.8,220.3L75.8,220.3L75.8,220.3z"/>
		<path class="st0" d="M132.8,232L132.8,232c0.1,0,0.1,0.1,0.2,0.2V232c-0.1-0.1-0.2-0.1-0.3-0.1L132.8,232z"/>
		<path class="st0" d="M124.8,219.3L124.8,219.3L124.8,219.3z"/>
		<path class="st0" d="M114.6,221.5c-0.1,0-0.1,0.1-0.2,0.1c0.2,0.1,0.3,0.1,0.4,0.1C114.7,221.7,114.6,221.6,114.6,221.5z"/>
		<path class="st0" d="M125.2,219.2L125.2,219.2C125.1,219.1,125.1,219.1,125.2,219.2c-0.1-0.1-0.2-0.2-0.4-0.3h-0.1c0,0,0,0,0,0.1
			s0.3,0.2,0.3,0.2S125,219.2,125.2,219.2z"/>
		<path class="st0" d="M75,245.5C75,245.6,75,245.6,75,245.5c0,0.2,0.1,0.2,0.1,0.2c0,0.1,0,0.1,0.1,0.2c0.1,0.1,0.3,0.1,0.4,0.2
			h0.1C75.6,245.7,75.4,245.5,75,245.5C75.1,245.5,75,245.5,75,245.5z"/>
		<path class="st0" d="M83.8,250.2c0-0.1,0-0.2,0-0.3l-0.1-0.1c-0.1,0-0.1,0-0.1,0C83.6,249.9,83.6,250,83.8,250.2L83.8,250.2z"/>
		<path class="st0" d="M139.2,234.5L139.2,234.5L139.2,234.5L139.2,234.5z"/>
		<path class="st0" d="M74.9,245.4C75,245.4,75,245.4,74.9,245.4C75,245.4,75,245.4,74.9,245.4L74.9,245.4
			C75,245.4,75,245.4,74.9,245.4z"/>
		<path class="st0" d="M132.4,230.9L132.4,230.9L132.4,230.9z"/>
		<path class="st0" d="M79.7,217.1c-0.1,0.1-0.2,0.1-0.2,0.1l-0.1,0.1C79.5,217.2,79.6,217.2,79.7,217.1L79.7,217.1L79.7,217.1
			C79.7,217,79.7,217.1,79.7,217.1C79.7,217,79.8,217,79.7,217.1C79.7,217,79.7,217.1,79.7,217.1z"/>
		<path class="st0" d="M132.4,230l-0.1-0.1C132.3,229.9,132.3,230,132.4,230z"/>
		<path class="st0" d="M114.8,221.7C114.8,221.7,114.8,221.7,114.8,221.7L114.8,221.7L114.8,221.7z"/>
		<path class="st0" d="M115.5,222.4L115.5,222.4c-0.1-0.1-0.1-0.1-0.1-0.2C115.4,222.3,115.4,222.3,115.5,222.4
			C115.4,222.4,115.4,222.4,115.5,222.4z"/>
		<path class="st0" d="M132.2,230.3c0-0.1,0-0.1-0.1-0.1C132.1,230.2,132.2,230.2,132.2,230.3z"/>
		<path class="st0" d="M117.1,209.8L117.1,209.8c0.1,0,0.1,0,0.2,0C117.2,209.8,117.1,209.8,117.1,209.8
			C117,209.7,117.1,209.8,117.1,209.8z"/>
		<path class="st0" d="M122.6,214.3L122.6,214.3c0.1,0.1,0.3,0.2,0.5,0.2l0,0C122.8,214.4,122.6,214.3,122.6,214.3z"/>
		<path class="st0" d="M123.8,214.9L123.8,214.9c-0.2-0.1-0.4-0.3-0.7-0.4C123.2,214.8,123.5,215,123.8,214.9z"/>
		<path class="st0" d="M122.8,212.6c0,0,0.1,0.1,0.2,0.1C122.9,212.7,122.9,212.6,122.8,212.6z"/>
		<path class="st0" d="M67.4,248.5L67.4,248.5l-0.1,0.1c-0.1,0-0.1,0.1-0.1,0.1c0.2,0.5,0.3,1,0.5,1.4c0.3,0.4-0.1,0.8,0,1.2
			c0,0.1,0.2,0.2,0.2,0.3c0-0.1,0.1-0.1,0.1-0.1c0.1-0.1,0.1-0.2,0.1-0.2v-0.1c0.4,0.5,0.2,1.1,0.6,1.6v-0.1h0.1
			c0.1,0.1,0.1,0.3,0.1,0.4c0.1,0,0.1,0,0.1,0V253c0.4,0.1,0.6,0.4,0.7,0.8l0.1-0.1c0.1,0.2,0,0.3,0.1,0.5c0.1,0,0.3-0.1,0.4-0.1
			c0-0.3-0.1-0.5-0.1-0.8c0.2,0,0.2,0,0.4-0.4c0,0,0.1,0,0.2,0l0.1-0.4l-0.1-0.1c-0.3,0.2-0.6,0.3-1,0.4c-0.1,0-0.2-0.1-0.2-0.2
			c-0.1-0.1-0.1-0.1-0.1-0.1v0.1c-0.1,0-0.2-0.1-0.2-0.2l0.1-0.1h-0.1c-0.3-0.9-0.4-1.9-0.3-2.8c0.1,0,0.1,0.1,0.1,0.1
			c0.3-0.6,0.5-1.4,0.6-2.1c-0.1-0.1-0.2-0.2-0.3-0.2c0,0,0.1-0.1,0.1-0.2c-0.2-0.2-0.3-0.3-0.5-0.4c0,0.1-0.1,0.1-0.1,0.1
			s-0.1-0.1-0.1-0.2c-0.1,0-0.1,0.1-0.2,0.1s-0.2-0.1-0.3,0c-0.1-0.1-0.2-0.1-0.3-0.2c-0.1,0.1-0.1,0.1-0.2,0.1s-0.1-0.1-0.1-0.1
			h-0.1c-0.1,0-0.1-0.1-0.1-0.2c0.1-0.1,0.2-0.1,0.3-0.2c0.2-0.5,0.4-1,0.6-1.5l0.1-0.2c0,0.1,0,0.2,0,0.3c0.2-0.2,0.2-0.6,0.4-0.8
			c0,0,0-0.1,0-0.2l0.1-0.1l0,0c0,0,0-0.1,0.1-0.1l0,0l0,0c0.1-0.1,0.2-0.2,0.2-0.4c0,0,0,0-0.1,0l0.1-0.1c0,0,0,0,0.1,0
			c0-0.1,0.1-0.2,0.1-0.3l0.1-0.1l0,0c0-0.1,0.1-0.2,0.1-0.3c-0.2,0-0.3,0-0.4-0.2c-0.1,0-0.1,0-0.1,0c-0.1,0-0.1,0-0.1,0
			c0,0.1-0.1,0.1-0.2,0.1h-0.1c-0.1,0.1-0.2,0.2-0.3,0.3l-0.1,0.1l0,0v0.1L68,243v0.1c-0.1,0.3-0.3,0.6-0.6,0.8c0,0.1,0,0.1,0,0.1
			c-0.1,0.1-0.1,0.2-0.2,0.2c0-0.1-0.1-0.1-0.1-0.1c0-0.1,0-0.2,0-0.2c-0.3-0.1-0.6,0-0.9,0.1c-0.1-0.1-0.2-0.3-0.1-0.4
			c-0.5-0.4-0.4-1.4-0.3-2.1l0,0v-0.1l0,0c0.1-0.3,0.1-0.5,0.1-0.5l-0.1,0.1c0.1-0.8,0.4-1.5,0.8-2.2c0.1,0,0.1-0.1,0.1-0.1v-0.1
			l0.1-0.1l0.2-0.3c0.3-0.6,0.6-1.2,0.8-1.8c0.1,0,0.1,0.1,0.1,0.1c0,0.1,0.1,0.1,0.1,0.1c0.1,0,0.1-0.1,0.1-0.1h0.1
			c0,0,0.1-0.1,0.1-0.2c0.1,0,0.1,0.1,0.1,0.1c0.3-0.1,0.5-0.2,0.7-0.3c0-0.1,0.1-0.2,0.2-0.3c0,0.1-0.1,0.1-0.1,0.2
			c0.1,0,0.1,0,0.1,0c0.3-0.1,0.7,0,0.8,0.3c0.1,0,0.1-0.1,0.2-0.1c0,0.1,0.1,0.1,0.1,0.1c-0.1,0-0.1,0.1-0.1,0.1l0.1,0.1
			c-0.1,0.1-0.1,0.3,0,0.4h0.3l0.1-0.1c0,0.1,0.1,0.2,0.2,0.3c0,0,0.1-0.1,0.1-0.2c0,0,0.1-0.1,0.1-0.2h0.1l0.1-0.1
			c-0.1,0-0.1-0.1-0.1-0.1l-0.1,0.1v-0.1c0.2-0.1,0.5-0.1,0.7,0c0.1,0,0.1,0,0.1,0s0,0.1,0,0.2c0.1,0,0.1,0.1,0.1,0.1h0.1l0.1-0.1
			c0.1,0.1,0.2,0.2,0.3,0.1c0.1,0.2,0.2,0.4,0.2,0.6c0.2,0,0.4,0,0.6-0.1c0.1,0.3,0.2,0.6,0.2,0.9c-0.1,0.3-0.4,0.5-0.4,0.8h0.1
			c-0.1,0.3-0.2,0.5-0.2,0.8h0.1c-0.1,0.2-0.1,0.3-0.2,0.4l0.1,0.1v0.9c0.2,0.1,0.3,0.1,0.4,0.1c0.4-0.8,0.7-1.6,0.9-2.5v-0.1
			c0.1-0.6,0.2-1.2,0.4-1.7c0.2-0.3,0.4-0.6,0.7-0.8c0-0.1,0.1-0.1,0.1-0.1s0.1,0,0.1-0.1c0.2,0,0.4-0.2,0.6-0.2l0.1-0.1
			c0.6-0.4,1.2-0.7,1.8-0.9c-0.1-0.1-0.1-0.1,0-0.4c0,0,0.3,0.2,0.5-0.3h-0.1c0-0.1,0.1-0.2,0.3,0c0.1-0.2,0.1-0.4,0.2-0.6
			c-0.1-0.2-0.1-0.2,0.2-0.8c-0.1-0.1-0.1-0.1-0.1-0.2c0.1,0,0.1,0.1,0.1,0.1c0.1-0.3,0.2-0.6,0.4-0.8c0,0.1-0.1,0.2-0.1,0.3
			l-0.1,0.1c0.1,0,0.1,0.1,0.1,0.1s-0.1,0-0.1,0.1c-0.1,0.3-0.2,0.6-0.3,0.8c0,0.1,0,0.1,0,0.1c0.2-0.4,0.7-0.6,0.9-1
			c-0.1-0.1-0.1-0.1-0.1-0.2c0-0.1,0.1-0.1,0.1-0.2c0.1,0.1,0.1,0.2,0.2,0.2c0,0.1-0.1,0.1-0.1,0.2c0.1,0,0.1-0.1,0.2-0.1
			c0,0.1,0,0.1,0,0.1c0-0.1,0-0.1,0-0.2c0.2-0.2,0.5-0.4,0.6-0.7c0.3-0.2,0.7-0.2,1-0.2V231c-0.1-0.1-0.2-0.1-0.3,0h-0.1
			c0-0.1,0.1-0.1,0.2-0.1s0.1-0.1,0.1-0.1c0.3,0.1,0.6,0,0.9-0.2c0,0.1,0,0.2-0.1,0.3c0.1,0,0.2-0.1,0.4-0.1
			c0.1-0.1,0.2-0.2,0.2-0.3c0,0-0.1,0-0.1,0.1h-0.1c0,0-0.1,0-0.1-0.1s0.1-0.1,0.1-0.2H83c0.1-0.3,0.3-0.5,0.5-0.7h0.1
			c0.1,0,0.1-0.1,0.1-0.1l0.9-0.5c0,0.1,0.1,0.1,0.1,0.2c0.1,0.1,0.1,0.1,0.2,0.1c0.2-0.1,0.6,0,0.7-0.4c0.5,0.2,0.9-0.2,1.3-0.3
			c-0.1,0.1-0.2,0.2-0.3,0.3c0.1,0,0.1,0,0.2,0c-0.2,0.5-1.3,0.4-1.1,1.1c0.4,0,0.7-0.2,0.9-0.5c0.2-0.1,1.4-0.3,1.4-0.3h0.1
			c0-0.1,0.1-0.1,0.1-0.1V229c0.3-0.2,0.6-0.1,0.8-0.3c0-0.1,0-0.1-0.2-0.2c0.1-0.1,0.1-0.3,0.2-0.4h-0.1c-0.4,0.1-0.6,0.4-0.8,0.7
			H88c-0.2-0.1-0.5-0.2-0.8-0.2c0.1-0.1,0.1-0.1,0.1-0.2c-0.1-0.1-0.2-0.1-0.3-0.1c0-0.1,0-0.2,0.1-0.3c-0.1,0-0.1-0.1-0.1-0.1h0.1
			c0-0.1,0.1-0.1,0-0.1l0,0v-0.1c0.2-0.1,0.4-0.3,0.6-0.5c-0.1,0-0.2,0.1-0.2,0.1c-0.1,0.1-0.1,0.1-0.2,0.1c0-0.1,0-0.1,0-0.2h-0.1
			v-0.1c0.1,0,0.1-0.1,0.2-0.1c0.5,0.5,0.9-0.4,0.9-0.4v-0.1h-0.1c0-0.1,0-0.1,0-0.1H88c-0.1,0.1-0.1,0.1-0.1,0.1H88l-2.4,1.1l1.4-1
			c0.2-0.1,0.6-0.1,0.8-0.2s0.2-0.3,0.4-0.4c0.4-0.1,0.9-0.1,1.3,0.1c0-0.1,0.1-0.1,0.1-0.1c0.1,0,0.1,0.1,0.1,0.1h0.4v0.1h0.1v0.1
			c0.2-0.3,0.6,0.2,0.8-0.1c0.1-0.1,0.3-0.2,0.4-0.3l0.3,0.1c-0.2,0.1-0.3,0.2-0.5,0.2c-0.1,0.4,0.4,0.3,0.4,0.3
			c0.1,0,0.1-0.1,0.1-0.1c0.3,0.2,0.6,0.3,0.9,0.2c0,0.1,0,0.1,0.2,0.2c0.1-0.1,0.1-0.2,0.3-0.1c-0.1,0-0.1,0.1-0.2,0.1
			c0,0.1-0.1,0.1-0.1,0.2h-0.2c0,0.1,0,0.1,0,0.2c0.1,0,0.1-0.1,0.1-0.1c0.1,0,0.1,0,0.2,0c0,0,0.1,0,0.1-0.1s0.1-0.1,0.1-0.1
			c0.2-0.1,0.3-0.2,0.5-0.3v0.1l0,0c-0.1,0.1-0.1,0.1-0.1,0.1l0,0c-0.1,0.1-0.2,0.3-0.2,0.4c0.1,0,0.1,0,0.2,0s0.1-0.1,0.2-0.1
			c0,0.1-0.1,0.2-0.1,0.3c0,0,0.1,0,0.2,0c0-0.1,0.1-0.1,0.1-0.1c0.1-0.2,0.2-0.4,0.3-0.6c0-0.1,0-0.1,0-0.1
			c-0.1,0.1-0.2,0.2-0.3,0.2c0-0.1,0.1-0.2,0.2-0.3c0.1,0,0.1-0.1,0.1-0.1c-0.1,0.1-0.2,0.1-0.3,0.2c-0.1,0.1-0.1,0.1-0.2,0.1
			c0.1-0.2,0.2-0.3,0.4-0.4c0.1,0,0.1,0,0.1-0.1l0,0c0,0-0.1-0.1-0.2-0.1h-0.3c0.1-0.1,0.2-0.2,0.3-0.3l0,0l0,0l0,0l0,0v-0.2l0,0
			h0.1c0-0.1-0.1-0.1-0.1-0.1l0,0l-0.1-0.9l-0.1-0.2c0,0,0,0,0-0.1h-0.1l-0.4-0.4c0.1,0,0.1,0,0.2,0c0,0,0-0.1-0.1-0.1
			c0-0.1,0-0.1,0-0.2c-0.1,0-0.2,0-0.3,0c0-0.1,0-0.2-0.2-0.2c-0.1,0-0.1,0-0.1,0l0,0l0,0l0,0l0,0v-0.1l0,0v-0.1c0,0,0,0,0.1-0.1
			l0,0l0,0v-0.7l0,0l0,0v-0.3l0,0c0-0.1,0-0.1,0-0.1v-0.1H93l-0.1-0.1v-0.5V221v-0.4v-0.2c0-0.1,0.1-0.1,0.1-0.2l-0.6-0.3l-0.7-0.6
			l-0.1,0.3c0,0,0,0-0.1-0.1c0.1-0.1,0.1-0.2,0.2-0.2c-0.1-0.2-0.1-0.3-0.2-0.5h-0.6c-0.1-0.1-0.1-0.1-0.2-0.2c-0.1,0-0.1,0-0.2,0
			l0,0l0,0l0,0l0,0l0,0l0,0c-0.2,0.1-0.3,0.2-0.3,0.5c-0.2,0.1-0.5,0.3-0.5,0.3v0.1c0,0.1-0.1,0.1-0.1,0.2c-0.3,0.3-0.7,0.4-1,0.7
			c-0.2,0.1-0.2,0.3-0.1,0.4c0,0.4-0.3,0.8-0.6,1c0,0-0.1,0.1-0.2,0.1h-0.1l0,0c0,0-0.1,0-0.1,0.1c-0.3,0.2-0.6,0.3-1,0.4h-0.1
			c0-0.1,0-0.1,0-0.1c-0.1,0-0.2,0.1-0.2,0.2c0,0.1,0,0.1,0,0.1v0.1c-0.2,0.4-0.7,0.5-0.6,1l-0.6,0.6v-0.1c-0.1-0.1-0.2,0-0.3,0
			c-0.1-0.1-0.2-0.1-0.2-0.1c0.1-0.1,0.1-0.3,0-0.5c0,0,0.1-0.1,0.3-0.4c0.1,0,0.1,0.1,0.1,0.1c0-0.1,0.1-0.1,0.1-0.2
			c0-0.1,0-0.1,0-0.1c-0.1,0-0.1,0-0.1,0c0.1-0.2,0.4-0.6,0.7-1c-0.1-0.1-0.2-0.2-0.3-0.3H85c0-0.2-0.1-0.4-0.2-0.6
			c0.1-0.2,0.1-0.4,0.1-0.6l-0.1-0.1c0-0.1,0-0.1,0-0.2v-0.1h-0.5c0.3-0.2,0.5-0.5,0.8-0.8c0-0.1,0-0.1,0-0.1H85
			c0.2-0.5,2-1.4,2.5-1.5c0.1-0.1,0.3-0.1,0.4-0.2c0.2,0.2,1-0.1,1.7-0.4c0,0.1,0.1,0.1,0.1,0l0,0c0.1,0,0.1,0,0.1,0s0,0,0-0.1
			c0,0,0,0,0-0.1l0,0l0.1,0.1c0.1,0,0.2-0.1,0.2-0.1H90c0.1,0,0.1-0.1,0.2-0.1c-0.1-0.1-0.2-0.1-0.3-0.1c0.1,0,0.2-0.1,0.4-0.2h0.1
			l0,0l0.1-0.1h0.1h0.1c0,0.1,0.1,0.2,0.2,0.2s0.1,0,0.1,0c0-0.1,0.1-0.1,0.1-0.1c0.1,0,0.1,0,0.2,0c0-0.1,0-0.2-0.1-0.2l0,0h-0.1
			l0,0h0.1c0,0-0.1,0-0.1,0.1v-0.1c0.1,0,0.2,0,0.3-0.1l0,0c1.1,0.1,1.4-1,2.3-1.2l-0.1,0.1c0,0.1,0.1,0.1,0.2,0.1l0,0
			c0.1,0,0.1,0.1,0.2,0c0.1,0,0.1,0,0.1,0s0,0,0.1,0l0.1-0.1c0,0,0,0,0.1,0c0,0.1-0.1,0.2-0.2,0.2c0.1,0,0.1,0,0.2,0
			c-0.1,0-0.2,0-0.2,0.1l0,0h0.1c0.1,0,0.1,0,0.1,0c-0.1,0.1-0.1,0.1-0.1,0.1l0,0l-0.1-0.1c-0.1,0-0.2,0.1-0.3,0.1
			c0,0,0.1,0.1,0.2,0.3v-0.1l0,0c0-0.1-0.1-0.1-0.1-0.2l0.1,0.1c0.1,0,0.1-0.1,0.1,0c-0.1,0-0.1,0-0.1,0.1s0.1,0.1,0.1,0.2l0.1-0.1
			l0.1-0.1c0.1-0.1,0.2-0.1,0.3-0.1c0,0.1-0.1,0.1-0.2,0.1h0.2c-0.1,0-0.1,0.1-0.2,0.1h-0.1c-0.1,0-0.1,0.1-0.2,0.1
			c0.3,0.4,0.5,0.8,0.8,1.2l0,0c0,0,0,0,0.1,0c0.1,0.1,0.2,0.2,0.2,0.4l0,0l0,0l0,0h0.1l0.1-0.1l0.1-0.1c-0.1-0.1-0.1-0.1,0-0.2
			c0.1,0,0.2-0.1,0.3-0.1c0.1-0.2-0.1-0.2-0.1-0.2c-0.1,0-0.1,0-0.1,0.1v-0.1l0.1-0.1h-0.3c0.1,0,0.1-0.1,0.2-0.1c0-0.1,0-0.1,0-0.1
			c-0.1,0-0.1,0-0.1,0c0-0.1,0-0.1,0-0.2h-0.1c0-0.1,0.1-0.1,0.1-0.1h-0.1c0-0.1,0-0.1,0-0.1l-0.1,0.1h-0.1c0,0,0-0.1,0.1-0.1
			c-0.1,0-0.1,0-0.2,0l0.1-0.1c0,0-0.1-0.1-0.2-0.1c0,0,0,0,0.1-0.1s0.2-0.1,0.2-0.2c0-0.1,0-0.1,0-0.1c0,0.1,0.1,0.1,0.2,0.1
			s0.1-0.1,0.1-0.1c-0.1-0.1-0.1-0.1-0.2-0.1c0-0.1,0.1-0.1,0.1-0.1h0.3c0,0,0-0.1,0-0.2c0.1-0.1,0.2-0.2,0-0.2c-0.1,0-0.1,0-0.2,0
			l0.1-0.1h-0.3c0.1,0,0.1,0,0.2-0.1c0,0-0.1,0.1-0.2,0.1l0,0l0.3-0.2c-0.1,0-0.1-0.1-0.2-0.1v-0.1c0,0,0.1,0,0.1-0.1l0,0
			c0,0,0,0,0-0.1c0,0,0,0-0.1,0c0.1-0.1,0.2-0.1,0.2-0.2c-0.1,0-0.1,0-0.2,0c0-0.1,0-0.2-0.1-0.2c-0.1,0.1-0.3,0.1-0.4,0.1
			s-0.3,0-0.4,0.1c0.2-0.2,0.4-0.3,0.6-0.4l-0.1,0.1c0.1,0,0.1,0.1,0.1,0.1c0.1,0,0.2-0.1,0.3-0.1c0.1,0,0.1,0.1,0.1,0.1h0.2
			c0-0.1,0.1-0.2,0.1-0.2c0.1,0,0.1,0,0.1-0.1c-0.1-0.1-0.1-0.1-0.2-0.1s-0.3,0-0.4,0.1h-0.1l0.2-0.1l-0.1-0.1
			c-0.4-0.1-0.9,0-1.2,0.3c-0.4,0.1-0.4,0.1-0.5,0.3c-0.1-0.1-0.1-0.1-0.1-0.2c0.3-0.3,0.8-0.6,1.3-0.6c0-0.1,0-0.1,0-0.1
			c-0.8,0-1.5,0.2-2.1,0.6l0.1,0.1v0.1c-0.1,0-0.2,0-0.2,0l-0.1-0.1c-0.1,0.1-0.2,0.2-0.3,0.3c0.1,0.1,0.2,0.1,0.3,0.1l-0.1,0.1
			c0.1,0.1,0.2,0.2,0.4,0.2l-0.1,0.1c-0.1-0.1-0.2-0.1-0.3-0.2c-0.1,0-0.1,0-0.1,0c0,0.1-0.1,0.2-0.2,0.2l0.1-0.1
			c-0.1,0-0.2,0.1-0.2,0.1c0,0.1-0.1,0.1-0.1,0.1c-0.5,0.3-0.5,0.3-0.7,0.2c-0.1,0.2-0.3,0.3-0.5,0.3c0.2-0.4,0.7-0.5,0.9-0.8
			c-0.1,0-0.2,0-0.3,0.1l0.1-0.1c0.1-0.1,0.2-0.2,0.2-0.3h0.1l0,0c0,0,0,0,0-0.1c0.1-0.1,0.1-0.1,0.1-0.1l1.5-0.9l0.1,0.1
			c0.3,0,0.6-0.1,0.9-0.2c0-0.2-0.1-0.3-0.2-0.3c-0.7,0.2-1.4,0.4-2,0.8h-0.1c-0.1,0.1-0.2,0.1-0.4,0.2l0,0
			c-0.2,0.1-0.4,0.2-0.6,0.4v0.1c-0.2,0.1-0.3,0.2-0.5,0.2v0.1c-0.2,0.1-0.4,0.1-0.6,0.1c0,0-0.1,0-0.2,0.1c0.1-0.1,0.2-0.1,0.3-0.2
			c0-0.1,0-0.2,0-0.2h0.5c0-0.2,0.2-0.3,0.3-0.3c0-0.1,0-0.1,0-0.2c-0.3,0-0.5,0-0.7,0.2c0,0,0,0,0,0.1h-0.1l0,0l-0.1,0.1
			c-0.1,0-0.3,0-0.4,0.1c0,0.1-0.1,0.1-0.1,0.1l-0.1-0.1h-0.2l-0.1-0.1l0.1-0.1c-0.1,0-0.2,0-0.2,0l0.1-0.1c0.1-0.1,0.3-0.2,0.4-0.3
			c-0.3-0.1-0.4-0.1-0.9,0.2l0.1-0.1c-0.1,0-0.1,0-0.2,0h-0.1l-0.1-0.1c0.2-0.2,0.5-0.3,0.8-0.4l-0.1-0.1l0.3-0.3
			c0.1-0.1,0.2-0.1,0.3-0.2c-0.1,0-0.1,0-0.2,0h-0.1c0,0,0.1,0,0.2-0.1c0.2-0.1,0.3-0.2,0.5-0.2c-0.1,0-0.2,0-0.2,0.1h-0.3
			c0.1-0.1,0.1-0.1,0.2-0.1c0.1-0.1,0.2-0.1,0.3-0.1c0-0.1-0.1-0.1-0.1-0.1h-0.3c0-0.1,0-0.1,0.1-0.1h-0.1l1.4-0.7
			c0.1,0,0.1,0,0.2-0.1c-0.3,0.1-0.6,0.2-0.9,0.3h0.2c-3,1.1-3,1.1-4,1.5l-1.3,0.6h-0.1c0,0.1,0,0.1-0.1,0.1l0,0H85l0,0
			c0,0-0.1,0-0.2,0.1h-0.1c-0.1,0-0.1,0-0.1,0l0,0c-0.1,0-0.2,0.1-0.3,0.1c0,0,0,0-0.1,0c0,0,0,0-0.1,0c0,0,0,0,0,0.1h0.1
			c-0.1,0-0.1,0.1-0.2,0.1h0c-0.3,0.2-0.7,0.4-1,0.6c-0.1,0-0.1,0-0.1,0c-0.3,0.2-1.2,0.8-1.2,0.8c-0.3,0.2-0.5,0.3-0.8,0.5
			c-0.1,0.1-0.1,0.1-0.4,0.3c0.6-0.3,1.2-0.7,1.8-1.1c-0.1,0.1-0.3,0.2-0.4,0.3l0.6-0.3c-0.2,0.2-0.4,0.3-0.6,0.4c0,0,0,0,0-0.1
			c-0.3,0.2-0.6,0.3-0.8,0.5c0.1,0,0.2,0,0.3-0.1c-0.1,0.1-0.3,0.2-0.4,0.3s-0.3,0.1-0.4,0.2c0,0,0,0,0.1-0.1
			c-0.1,0.1-0.2,0.1-0.2,0.2h0.1c0,0,0,0-0.1,0c0,0-0.1,0-0.1,0.1c0,0,0,0,0.1,0c-0.1,0-0.2,0.1-0.3,0.1c-0.1,0-0.2,0-0.2,0.1
			s-0.1,0.1-0.1,0.1l-0.1,0.1l0,0c0.1,0,0.1-0.1,0.2-0.1h0.1c-0.2,0.1-0.4,0.2-0.6,0.4l0.3-0.2c-0.3,0.3-0.6,0.5-0.9,0.7l0.1-0.1
			c-0.2,0.1-0.4,0.2-0.6,0.4l0,0c-0.1,0.1-0.2,0.1-0.3,0.2c-0.1,0.1-0.2,0.3-0.4,0.4c0,0-0.1,0.1-0.2,0.1c0,0,0,0,0.1,0
			c-0.2,0.2-0.4,0.3-0.4,0.3c-0.1,0.1-0.2,0.3-0.4,0.4c0-0.1,0.1-0.2,0.2-0.3c-0.3,0.2-0.6,0.4-0.9,0.7c0,0,0,0,0.1,0
			c-0.1,0.1-0.1,0.2-0.2,0.2c0.1,0,0.1,0,0.1,0c-0.1,0.1-0.2,0.2-0.3,0.3c0,0,0,0.1-0.2,0.2v-0.1l0.1-0.1c0,0-0.1,0-0.1,0.1l0,0
			c-0.1,0.1-0.1,0.2-0.2,0.3l-0.1,0.1v-0.1c0-0.1,0-0.1,0-0.1l0,0c0,0-0.1,0-0.1,0.1L75,221c-0.1,0.2-0.3,0.3-0.5,0.5
			s-0.5,0.4-1.3,1.2l-0.6,0.5l-0.2,0.2c-0.1,0.1-0.1,0.1-0.2,0.2c-0.2,0.2-0.5,0.5-0.9,1c-0.3,0.3-0.6,0.7-0.9,1.1
			c-0.2,0.2-0.3,0.5-0.5,0.7H70c-0.1,0-0.1,0.1-0.2,0.2l0.1-0.1c-0.4,0.5-0.8,1.2-1.2,1.8c-0.1,0.1-0.1,0.1-0.1,0.2
			c0.1,0.1,0.1,0.2-0.3,1c-0.2,0.4-0.5,1-0.9,1.8v0.1c-0.5,1.1-0.5,1.1-0.5,1.2c-0.1,0.4-0.3,0.8-0.5,1.2c0-0.1-0.1-0.1-0.1-0.2
			c-0.1,0.3-0.1,0.6-0.2,0.9c0.1,0,0.1,0,0.1,0c0,0.3,0,0.5-0.1,0.7c-0.1,0.3-0.3,0.5-0.4,0.8l0.1,0.6c0.5-1.8,1.2-3.6,1.9-5.3
			c0-0.1,0.1-0.2,0.2-0.3l0.1,0.1c-0.1,0.2-0.1,0.3-0.2,0.5v0.1c-0.1,0.2-0.7,1.4-0.7,1.4v0.1l-1,4.5l0,0v0.1l0,0l-0.1,0.3l0,0l0,0
			l-0.5,2c-0.1,0-0.1,0.1-1.1,0.2l0,0l0,0l-0.6,0.1c-0.1,0-0.2,0-0.4,0c-0.2,0.8-0.2,1.6,0.1,2.3c0.3,0.5,0.6,1.1,0.7,1.8
			c0.2,0.2,0.4,0.5,0.5,0.8c0.1,0,0.3-0.1,0.4-0.1c0.1-0.1,0.1-0.1,0.4,0v0.1c0,0.1,0,0.2,0.1,0.2c0,0.7,0.4,1.2,0.4,1.9
			c0.5,0.3,0.5,0.3,0.6,0.6c0.1,0,0.1,0,0.1,0C66.9,248.2,67.1,248.4,67.4,248.5z M83.6,218.3L83.6,218.3L83.6,218.3
			c0.1,0,0.1-0.1,0.1-0.1C83.7,218.3,83.7,218.3,83.6,218.3C83.7,218.3,83.6,218.3,83.6,218.3L83.6,218.3z M80.1,224.1
			C80.1,224.2,80.1,224.2,80.1,224.1c0.2,0,0.3-0.1,0.4-0.1c0.1,0,0.2-0.1,0.3-0.1l0,0c0.1,0,0.3-0.1,0.4-0.2
			c-0.1,0.1-0.1,0.1-0.2,0.2c0.1-0.1,0.3-0.1,0.5,0v0.4c-0.1,0.1,0,0.1,0,0.1v0.1c-0.1,0.1-0.1,0.1-0.1,0.3
			c-0.2,0.2-0.2,0.2-0.2,0.2c0,0.1,0,0.1,0,0.1c-0.1,0.1-0.2,0.2-0.2,0.2s0.1-0.1,0.1-0.2c-0.1-0.1-0.2-0.1-0.3-0.1
			c-0.2,0-0.3,0.1-0.5,0.1V225l-0.1-0.1l0.1-0.1c-0.1-0.1-0.2-0.1-0.3-0.1c0-0.1,0.2-0.2,0.3-0.2c0.1,0,0.2,0,0.2-0.1
			c-0.1,0-0.3,0-0.4,0.1c-0.1,0-0.2,0.1-0.3,0.1h-0.2c-0.1,0.1-0.1,0.1-0.2,0.1c0-0.1,0.1-0.1,0.1-0.1c0.1,0,0.2,0,0.2-0.1h-0.4
			c0,0,0,0-0.1,0C79.5,224.3,79.8,224.2,80.1,224.1z"/>
		<path class="st0" d="M93.7,216.4c0.1-0.1,0.2-0.1,0.2-0.1C93.8,216.3,93.8,216.3,93.7,216.4z"/>
		<path class="st0" d="M92.9,223C92.9,223,92.9,223.1,92.9,223C92.9,223.1,93,223,92.9,223c0.2,0,0.3-0.1,0.4-0.1s0.1,0,0.2-0.1
			h-0.1c-0.1,0-0.1,0-0.2,0.1C93.1,222.9,93,222.9,92.9,223z"/>
		<path class="st0" d="M94.2,218.4C94.2,218.3,94.2,218.3,94.2,218.4l-0.1-0.1c0-0.1,0-0.2,0-0.2V218c0.1,0,0.1,0,0.2-0.1
			c0-0.1,0-0.1,0-0.2h-0.1v-0.1c0,0.1-0.1,0.1-0.1,0.1c-0.1-0.1-0.1-0.2,0-0.3c0.1,0,0.1-0.1,0.1-0.1l0.1-0.1c0-0.1,0-0.1,0-0.2
			l0.1,0.1c0.1,0.1,0.1,0.1,0.1,0.2c0.1,0,0.1,0,0.1,0c0,0.1,0,0.1,0,0.1c-0.1,0.1-0.1,0.1-0.1,0.1c-0.1,0-0.1,0.1-0.1,0.1v0.1h0.1
			c-0.1,0.1,0.2,0.1,0.2,0.1c0.1,0,0.2,0,0.2-0.1c0.1-0.1,0.1-0.2,0.2-0.2c-0.4-0.6-0.7-1.1-0.9-1.4l-0.3,0.5h-0.1v0.1l-0.1,0.1
			v-0.1h-0.1c0,0-0.1,0-0.2,0l0,0c0.1,0,0.3-0.1,0.4-0.1v-0.1c0,0,0-0.1-0.1-0.1c0,0.1-0.1,0.1-0.1,0.2c-0.1,0-0.1,0.1-0.2,0.1
			s-0.1,0-0.1,0.1l0,0l0,0c0,0,0,0-0.1,0s-0.1,0.1-0.2,0.1c-0.1,0.1,0,0.2-0.1,0.3c-0.1,0-0.1,0-0.1,0c0,0.1-0.1,0-0.1,0
			c-0.1,0-0.1,0.1-0.2,0.1l-0.3-0.1c-0.1,0-0.1,0-0.2-0.1c-0.1,0-0.2,0-0.2,0.1c-0.5,0.1-0.5,0.3-0.5,0.3c0.1,0.2,0.4,0.2,0.6,0
			c0.1,0,0.1,0.1,0.2,0.1c0,0.1,0.1,0.1,0.1,0.1c0.1,0,0.1,0,0,0.1h0.1c-0.1,0-0.1,0.1-0.1,0.1h0.1c-0.1,0.1,0,0.3-0.1,0.4v0.1
			l0.1-0.1c0-0.1,0-0.1,0-0.1s0.1,0.1,0.2,0.1l-0.1,0.1c0.2,0.2,0.2,0.2,0.3,0.2h0.1c0,0.1,0,0.1,0,0.1c0.1,0,0.1,0,0.1,0
			c0,0.1,0,0.1,0,0.1c0,0.1,0,0.1,0.2-0.1c0,0,0,0,0.1,0c-0.2-0.3-0.2-0.6-0.1-0.9c0.1,0,0.1,0.1,0.1,0.2h0.1c0-0.1,0-0.1,0-0.1
			c0,0.2,0.1,0.4,0.3,0.5c-0.1,0-0.1,0.1-0.1,0.1v0.1c0.1,0,0.1,0,0.2,0c0,0,0-0.1-0.1-0.1h0.1c0.1,0,0.2-0.1,0.2-0.2v0.1v0.1
			c0,0.1,0,0.2,0.1,0.2c0.1-0.3,0.1-0.3,0.1-0.3c0,0.1,0,0.1,0,0.1L94.2,218.4z"/>
		<path class="st0" d="M95.2,217.7L95.2,217.7c0-0.1-0.1-0.1-0.1-0.2C95.1,217.6,95.1,217.6,95.2,217.7
			C95.1,217.7,95.2,217.7,95.2,217.7z"/>
		<path class="st0" d="M94.2,216.1L94.2,216.1L94.2,216.1L94.2,216.1z"/>
		<path class="st0" d="M94.2,216.1L94.2,216.1L94.2,216.1L94.2,216.1z"/>
		<path class="st0" d="M80.7,224.1c0,0,0,0,0.1-0.1C80.8,223.9,80.7,224.1,80.7,224.1z"/>
		<path class="st0" d="M80.6,224.1C80.6,224.1,80.6,224.1,80.6,224.1C80.7,224,80.6,224.1,80.6,224.1z"/>
		<path class="st0" d="M87.4,221.9L87.4,221.9L87.4,221.9C87.4,222,87.4,222,87.4,221.9z"/>
		<path class="st0" d="M85.5,222.6L85.5,222.6C85.4,222.6,85.4,222.6,85.5,222.6C85.4,222.7,85.4,222.7,85.5,222.6z"/>
		<path class="st0" d="M85.8,222c0,0,0,0,0.1-0.1C85.8,221.9,85.8,221.9,85.8,222z"/>
		<path class="st0" d="M85.8,221.9c0.1,0,0.1-0.1,0.1-0.1C85.9,221.8,85.8,221.8,85.8,221.9z"/>
		<path class="st0" d="M87.4,220.4c-0.1,0-0.1,0-0.2,0c0,0.1,0,0.1,0,0.1h0.1c-0.1,0.1-0.2,0.1-0.3,0.2c0.1,0,0.1-0.1,0.2-0.1
			c0.2-0.1,0.3-0.2,0.5-0.3l-0.1-0.1c0,0,0,0-0.1,0C87.5,220.2,87.5,220.2,87.4,220.4z"/>
		<path class="st0" d="M87.7,220.4C87.6,220.3,87.6,220.4,87.7,220.4L87.7,220.4z"/>
		<path class="st0" d="M87.6,220.2C87.7,220.2,87.7,220.2,87.6,220.2L87.6,220.2z"/>
		<path class="st0" d="M87.6,219.9C87.6,220,87.6,220,87.6,219.9L87.6,219.9L87.6,219.9z"/>
		<path class="st0" d="M87.6,220.4C87.5,220.4,87.5,220.5,87.6,220.4C87.6,220.5,87.6,220.5,87.6,220.4L87.6,220.4L87.6,220.4z"/>
		<path class="st0" d="M86.8,222.2c0.1,0,0.1-0.1,0.2-0.1c0.1-0.2,0.1-0.2,0.1-0.3c0,0-0.1,0.1-0.2,0.1h-0.1
			C86.8,222,86.7,222,86.8,222.2L86.8,222.2c0.1-0.1,0.1-0.1,0.1-0.1C86.8,222.1,86.8,222.1,86.8,222.2z"/>
		<path class="st0" d="M87.3,221.7l-0.1,0.1C87.3,221.8,87.3,221.7,87.3,221.7z"/>
		<path class="st0" d="M82.9,288.1C82.9,288.2,82.9,288.2,82.9,288.1C83.1,288.2,83,288.1,82.9,288.1z"/>
		<path class="st0" d="M121.7,222.1c0-0.1,0-0.1-0.1-0.1C121.7,222.1,121.7,222.1,121.7,222.1z"/>
		<path class="st0" d="M118.2,219.6c0.1,0,0.1-0.1,0-0.1V219.6z"/>
		<path class="st0" d="M102.8,211.1c-0.1,0-0.1,0.1-0.2,0.1C102.7,211.2,102.7,211.2,102.8,211.1z"/>
		<path class="st0" d="M122.2,221.5c-0.1-0.1-0.2-0.2-0.3-0.3c-0.1,0.1-0.1,0.1-0.1,0.1s0,0,0,0.1s0.1,0.1,0.1,0.1
			c0,0.1,0.1,0.1,0.2,0.1c0,0.1,0,0.1,0,0.1c0,0.1,0,0.1,0,0.1h-0.2l0.1,0.1c0.1,0,0.1,0,0.2,0h0.1c0-0.1,0-0.1,0-0.1s0-0.1,0.1-0.1
			h-0.1c-0.1,0-0.1-0.1-0.1-0.1h0.1C122.3,221.6,122.3,221.5,122.2,221.5z"/>
		<path class="st0" d="M99.3,211.9C99.3,211.9,99.3,212,99.3,211.9L99.3,211.9L99.3,211.9L99.3,211.9z"/>
		<path class="st0" d="M100.2,213.6c0.1,0,0.1,0,0.1-0.1L100.2,213.6z"/>
		<path class="st0" d="M97.9,212C97.9,212,97.8,212.1,97.9,212C97.8,212.1,97.9,212.1,97.9,212z"/>
		<path class="st0" d="M121.3,221.5c0,0.1,0,0.1,0.1,0.1L121.3,221.5z"/>
		<path class="st0" d="M99.9,211.5L99.9,211.5c-0.1,0-0.1,0-0.2,0C99.8,211.6,99.8,211.6,99.9,211.5z"/>
		<path class="st0" d="M120.5,221.1C120.5,221,120.4,221,120.5,221.1L120.5,221.1z"/>
		<path class="st0" d="M100.1,213.8L100.1,213.8C100.1,213.9,100.1,213.9,100.1,213.8L100.1,213.8z"/>
		<path class="st0" d="M121.7,221.4C121.8,221.5,121.8,221.4,121.7,221.4L121.7,221.4z"/>
		<path class="st0" d="M121.7,221.4L121.7,221.4c0-0.1,0-0.1-0.1-0.2C121.6,221.6,121.6,221.5,121.7,221.4z"/>
		<path class="st0" d="M121.8,222C121.7,221.9,121.7,221.9,121.8,222C121.7,222,121.8,222,121.8,222z"/>
		<path class="st0" d="M98.3,211.6c0.1,0,0.3-0.1,0.3-0.1C98.5,211.5,98.4,211.6,98.3,211.6z"/>
		<path class="st0" d="M98.6,210.6l0.3-0.1C98.8,210.5,98.7,210.5,98.6,210.6z"/>
		<path class="st0" d="M98.4,211.1l-0.1,0.1C98.4,211.2,98.4,211.1,98.4,211.1z"/>
		<path class="st0" d="M98.3,211.6L98.3,211.6C98.2,211.6,98.2,211.6,98.3,211.6C98.2,211.6,98.2,211.6,98.3,211.6z"/>
		<path class="st0" d="M100.4,210.6C100.3,210.6,100.3,210.7,100.4,210.6L100.4,210.6z"/>
		<path class="st0" d="M100.5,210.6C100.5,210.6,100.4,210.6,100.5,210.6C100.4,210.6,100.4,210.6,100.5,210.6
			C100.3,210.7,100.5,210.6,100.5,210.6z"/>
		<path class="st0" d="M99.2,211.3C99.3,211.3,99.3,211.2,99.2,211.3L99.2,211.3z"/>
		<path class="st0" d="M99.5,210.5C99.5,210.6,99.6,210.5,99.5,210.5L99.5,210.5z"/>
		<path class="st0" d="M105.8,211.1L105.8,211.1L105.8,211.1L105.8,211.1z"/>
		<path class="st0" d="M105.7,211.2C105.8,211.1,105.8,211.2,105.7,211.2L105.7,211.2C105.8,211.1,105.7,211.2,105.7,211.2z"/>
		<path class="st0" d="M122.6,218.7C122.5,218.6,122.5,218.6,122.6,218.7C122.5,218.7,122.5,218.7,122.6,218.7z"/>
		<path class="st0" d="M102.4,210.9L102.4,210.9C102.3,211,102.3,210.9,102.4,210.9z"/>
		<path class="st0" d="M103.1,210.8C103.1,210.7,103,210.7,103.1,210.8L103.1,210.8z"/>
		<path class="st0" d="M103,210.8C103,210.8,103.1,210.8,103,210.8C103,210.7,103,210.7,103,210.8z"/>
		<path class="st0" d="M117.6,216.5c0.1,0.1,0.1,0.1,0.2,0.1C117.8,216.6,117.7,216.6,117.6,216.5z"/>
		<path class="st0" d="M135.2,232.1c-0.1,0.1-0.1,0.3,0,0.4l0.1-0.1C135.3,232.3,135.2,232.2,135.2,232.1z"/>
		<path class="st0" d="M137.6,232h-0.1C137.6,232.1,137.6,232.1,137.6,232z"/>
		<path class="st0" d="M135,232.8C135,232.9,135.1,232.9,135,232.8L135,232.8z"/>
		<path class="st0" d="M137.4,232c-0.1,0.1-0.2,0.1-0.2,0.2l-0.1,0.1c0,0.1-0.1,0.1-0.1,0.1v0.1c0,0.1,0,0.1,0,0.1
			c0.2,0.2,0.2,0.2,0.3,0.2s0.3-0.1,0.4-0.4c-0.1,0-0.2-0.1-0.2-0.2c0-0.1,0-0.1,0-0.1L137.4,232C137.5,232,137.5,232,137.4,232
			L137.4,232z"/>
		<path class="st0" d="M132.6,229.7c0.1,0,0.1,0,0.1,0.1C132.8,229.7,132.7,229.7,132.6,229.7z"/>
		<path class="st0" d="M132.8,230.2c0,0,0,0,0.1-0.1C132.8,230,132.7,230,132.8,230.2C132.8,230.1,132.8,230.2,132.8,230.2z"/>
		<path class="st0" d="M97.5,211.9C97.4,211.9,97.4,211.9,97.5,211.9C97.4,211.9,97.4,211.9,97.5,211.9L97.5,211.9
			c0.1,0,0.2-0.1,0.2-0.1C97.6,211.8,97.5,211.8,97.5,211.9C97.5,211.8,97.5,211.8,97.5,211.9C97.5,211.8,97.4,211.8,97.5,211.9
			L97.5,211.9L97.5,211.9L97.5,211.9c0.1,0.1,0.1,0.1,0.2,0.1c0,0.1,0,0.1,0,0.1h0.1c0-0.1,0.1-0.1,0.1-0.1l0,0c0,0,0,0,0.1,0l0,0
			h0.1c-0.1,0.1-0.1,0.1-0.2,0.1l0,0c0.2,0.1,0.3,0.1,0.5,0c0.2,0,0.3,0,0.4-0.1h-0.1c-0.1,0-0.1,0-0.1,0c0.1,0,0.2-0.1,0.2-0.1
			s0.1,0,0.2,0s0.2,0,0.3,0v-0.1c0.1,0,0.2-0.1,0.3-0.1c-0.1,0-0.1,0-0.1,0c0.1-0.1,0.2-0.1,0.3-0.1l0,0l0,0c0,0,0,0,0.1,0
			c0,0,0.1-0.1,0.2-0.1s0.2,0,0.2-0.1v-0.1h-0.2c-0.1-0.1-0.2-0.1-0.3,0h-0.1c-0.2,0-0.3,0-0.4,0.1l0,0c0,0,0,0-0.1,0
			c0-0.1,0-0.1,0-0.1c-0.2,0-0.3,0.1-0.5,0.2h0.1c0,0.1,0,0.1-0.1,0.1c0,0,0.1,0,0.2,0c-0.1,0.1-0.1,0.1-0.2,0.1
			c-0.4,0-0.4,0-0.4,0.1c-0.1,0-0.2,0.1-0.2,0.1c-0.1,0-0.1,0-0.2,0C97.8,211.8,97.6,211.8,97.5,211.9z"/>
		<path class="st0" d="M133.3,231.6C133.3,231.6,133.3,231.7,133.3,231.6C133.4,231.7,133.4,231.7,133.3,231.6z"/>
		<path class="st0" d="M133.2,231.6C133.2,231.7,133.3,231.7,133.2,231.6L133.2,231.6z"/>
		<path class="st0" d="M100.1,211.5L100.1,211.5L100.1,211.5L100.1,211.5c0.3-0.1,0.5-0.1,0.7-0.1h0.1l0,0l0,0l0,0l0,0l0,0
			c-0.1,0-0.1,0-0.2,0.1h0.3c0,0.1-0.1,0.1-0.2,0.1h-0.2c0.1,0,0.2-0.1,0.4-0.1c-0.3,0.1-0.5,0.1-0.7,0.1l0,0c0,0,0,0,0-0.1h-0.1
			C100.2,211.5,100.2,211.5,100.1,211.5c0,0.1-0.2,0.1-0.3,0.2c-0.1,0-0.1,0-0.1,0c-0.1,0.1-0.3,0.2-0.4,0.2c0.1,0,0.3,0,0.4-0.1
			c0,0,0.1,0,0.2,0c-0.2,0.1-0.4,0.1-0.6,0.2c0.1,0.1,0.1,0.1,0.2,0.1l-0.1,0.1h0.1v0.1c-0.1,0-0.2,0-0.3,0c0-0.1,0-0.1,0-0.1
			c-0.1,0-0.1,0-0.2,0c-0.2,0-0.2,0-0.2,0.1c0.1,0,0.1,0.1,0.2,0.1c-0.1,0-0.1,0-0.2,0s-0.1,0.1-0.1,0.1s0.1,0.1,0.2,0.1
			s0.1-0.1,0.1-0.1c0,0.1,0,0.1,0,0.1h0.1c0.1,0,0.1,0,0.1,0l-0.1,0.1c0.1,0,0.2,0,0.2,0c-0.1,0.1-0.1,0.1-0.1,0.1
			c0.1,0,0.1-0.1,0.2-0.1v0.1c0.1,0,0.1-0.1,0.2-0.1l0.1,0.1c0.1,0.1,0.1,0.1,0.2,0.1s0.1,0,0.1,0h0.1c0.1,0,0.1,0,0.1,0
			c0,0.1,0,0.1,0,0.1h0.1c0,0.1,0,0.1,0,0.1c-0.1,0-0.1,0-0.1,0.1c0.1,0,0.1,0,0.1,0v0.1c0.1,0,0.1,0,0.1,0c0.1,0,0.1,0,0.1,0
			l-0.1,0.1h0.1c-0.1,0.1-0.1,0.1-0.2,0.1c0,0.1,0,0.1,0,0.1c-0.1,0-0.2,0-0.2,0.1c0.1,0,0.1,0,0.2,0c0,0-0.1,0.1-0.2,0.2
			c0.1,0,0.1,0,0.1,0l-0.1,0.1h0.1v0.1c-0.2,0-0.2,0.1-0.2,0.2c0.2,0,0.4,0,0.6-0.1l-0.1,0.1c0.1,0.1,0.1,0,0.2,0
			c0,0.1-0.2,0.1-0.2,0.2c0,0.1,0.1,0.1,0.2,0.1c0,0.1,0,0.1,0,0.1c0.1,0,0.1,0,0.1,0c-0.1,0-0.1,0-0.1,0.1c-0.1,0-0.1,0-0.1,0v-0.1
			l-0.1,0.1c-0.1-0.1-0.1-0.2-0.2-0.2s-0.1,0-0.1,0s-0.1,0-0.2-0.1c0,0.1,0,0.1,0,0.1h-0.2c-0.1,0-0.1,0-0.1,0v0.1
			c0.1,0,0.2,0,0.3,0.1v0.1h0.1c0,0.1,0,0.1,0,0.1l0.1,0.1c-0.1,0-0.1,0-0.1,0.1c0.1-0.1,0.3-0.2,0.4-0.2c0,0.1-0.1,0.1-0.1,0.1v0.1
			c-0.2,0.1-0.4,0.3-0.5,0.5c-0.1,0-0.2,0-0.2-0.1c-0.1,0-0.3,0-0.4,0.1c0,0.3-0.4,0.3-0.4,0.6c-0.2,0.5-0.2,0.5-0.2,0.5
			c-0.1,0.1-0.1,0.1-0.1,0.2c0.1,0,0.1,0,0.1,0c0.1,0,0.1-0.1,0.1-0.1c0,0.1,0,0.1,0,0.2c0.1,0.2-0.2,0.3-0.2,0.5
			c0.2,0,0.3-0.1,0.4-0.2c0,0.1,0,0.1,0,0.1l-0.1,0.1v0.1c-0.1,0-0.2,0.1-0.2,0.1c0,0.1,0,0.1-0.1,0.2v0.2c0,0.1,0,0.6,0,0.6
			c0,0.1,0.1,0.1,0.1,0.1v0.3c0,0,0.1,0.1,0.1,0.2h0.1l0.1,0.1c0,0.1-0.1,0.1-0.1,0.2c0.1,0,0.1,0,0.2-0.1h0.1
			c0.2,0,0.4,0.1,0.6,0.2l-0.1,0.1c0.2,0.1,0.4,0.2,0.6,0.2c0.1,0,0.1,0,0.1-0.1c0.4-0.2,0.6-0.6,0.1-0.4l-0.1-0.1
			c0.1,0,0.1,0,0.1,0c0.2-0.3,0.5-0.5,0.8-0.7v-0.1c0.1-0.1,0.1-0.1,0.1-0.3h-0.2c0-0.1,0-0.1,0-0.1h0.4v-0.1c0.1,0,0.1,0,0.1,0
			c0-0.1,0-0.1,0-0.1h-0.1c0-0.1,0-0.1,0-0.1c0-0.1,0.1,0,0.1,0h0.1c0.1-0.1,0.3-0.2,0.5-0.3c-0.1,0.1-0.1,0.2-0.2,0.3
			c0,0,0.1,0,0.2,0s0.2-0.1,0.3-0.2c0.1,0,0.2-0.1,0.3-0.2c0.1,0,0.2-0.1,0.3-0.2c0.1,0,0.2-0.1,0.2-0.2l0.6-0.4
			c0-0.1-0.1-0.1-0.1-0.2c0-0.1,0-0.1,0-0.1c0.1,0.1,0.2,0.1,0.2,0.2h0.6c-0.1,0-0.1-0.1-0.1-0.1c0-0.1,0-0.1,0-0.1
			c0,0.1,0.1,0.2,0.6,0c0.2-0.1,0.5-0.2,0.7-0.2v-0.1c0.3-0.1,0.5-0.2,0.7-0.4c-0.3,0.1-0.7-0.1-1.1,0c0.1-0.1,0.2-0.2,0.3-0.2
			c0-0.2,0-0.3,0-0.4c0.1,0,0.2,0.1,0.3,0.1c0,0,0,0,0.1,0c0.1,0.1,0.2,0.1,0.3,0.2c0.1,0,0.1-0.1,0.1-0.2c0.3,0.3,0.3,0.1,0.3,0.1
			l-0.1-0.4l-0.1,0.1c-0.1,0-0.1-0.1-0.1-0.1h0.1v0c-0.1,0-0.2,0-0.2,0c0.1,0,0.1-0.1,0.1-0.1c0-0.1,0-0.1,0-0.1
			c0-0.1,0-0.1-0.1-0.1c0-0.1,0-0.1,0-0.1h0.1l0,0c0.1,0,0.1,0,0.1-0.1h0.2v-0.1c-0.1,0-0.3-0.1-0.4-0.1c0.1,0,0.1,0,0.1,0
			c0.2,0.1,0.4,0,0.5-0.1c-0.1,0-0.2,0-0.2,0h-0.1v-0.1c0-0.1-0.1-0.1-0.1-0.1c0-0.1,0-0.1,0-0.1c0-0.1,0-0.1,0-0.1
			c0.1,0,0.1,0,0.2,0.1c0.1,0,0.1,0,0.1,0c0-0.1-0.1-0.3-0.2-0.3c0-0.1,0-0.1,0-0.1c0-0.1,0-0.1-0.1-0.1c0-0.1,0-0.1,0-0.1
			c-0.1,0-0.1,0-0.1,0c0-0.1,0-0.1,0-0.1c-0.1,0-0.1,0-0.1,0c0,0.1-0.1,0.1-0.1,0.1s-0.1,0-0.1-0.1h-0.1v-0.1c0.1,0,0.2,0,0.2,0.1
			c0-0.1,0-0.1,0-0.1l0.1-0.1c0.1,0,0.1,0,0.1,0c0,0.1,0.3,0.3,0.3,0.3s0-0.1-0.1-0.2h0.1c0-0.1,0-0.2-0.1-0.2
			c0,0.1-0.1,0.1-0.1,0.1c-0.1,0-0.1-0.1-0.2-0.1c0-0.1,0-0.1,0-0.1c0.1,0,0.1,0,0.2,0c-0.1-0.1-0.3-0.1-0.4-0.1v0.1h-0.1
			c0.1-0.1,0.1-0.2,0.1-0.3s0-0.1,0-0.1c0.1,0,0.1,0,0.1,0c0-0.1,0-0.1,0-0.1h0.1v-0.2c0.2,0,0.2,0,0.2-0.1c0.1,0,0.1,0,0.1,0
			c0-0.1,0-0.1,0-0.1c0-0.1,0-0.1,0-0.1c0.1,0,0.1-0.1,0.2-0.1c0-0.1,0-0.1,0-0.1h0.1c0-0.1,0-0.1,0-0.1l0.1-0.1
			c0-0.1-0.1-0.1-0.2-0.1h-0.4v0.1c-0.1,0-0.1,0-0.2,0c0-0.1-0.1-0.1-0.1-0.1c-0.1,0-0.1,0.1-0.1,0.1c-0.1,0.1-0.1,0.1-0.1,0.1
			l-0.1,0.1v-0.1c0.1-0.1,0.1-0.2,0.2-0.3h0.2c-0.1-0.1-0.1,0-0.2,0c0,0,0-0.1-0.1-0.1H106c0,0,0,0,0,0.1h-0.1c0,0,0,0-0.3,0.1
			c0-0.1,0-0.1,0-0.1c0.1,0,0.2,0,0.2-0.1s0-0.1,0-0.1h-0.1c0.1,0,0.2,0,0.3-0.1c0-0.1,0-0.1,0-0.1h-0.1c-0.2,0-0.2,0-0.2,0
			c0-0.1,0-0.1,0-0.1h-0.1c0,0,0,0-0.6-0.1c-0.1,0-0.3,0-0.4,0.1c0,0.1-0.1,0.1-0.1,0.1c0-0.1,0-0.1,0-0.1c-0.1,0-0.1,0-0.1,0
			c-0.2,0.1-0.3,0.1-0.5,0.1c0,0.1,0,0.1,0,0.1c-0.1-0.1-0.1-0.1-0.2-0.1c0,0.1,0,0.2,0.1,0.2v0.4c-0.1,0-0.1,0-0.1,0
			c-0.1-0.1-0.1-0.2-0.2-0.2c0-0.1,0-0.1,0-0.1c-0.1,0-0.1,0-0.1,0c0-0.1-0.1-0.1-0.1-0.1s-0.1,0-0.1,0.1s0,0.1,0,0.1H103v0.1h-0.1
			c-0.1-0.1-0.2-0.1-0.3-0.1c-0.1,0-0.1-0.1-0.2-0.1h-0.5c0.1,0,0.2-0.1,0.4-0.1c0.2,0,0.4,0,0.5,0v0.1c0,0,0.1,0,0.1-0.1
			c0,0,0,0,0,0.1v0.1c0,0,0,0,0.1,0c0-0.2,0-0.3,0-0.4c-0.1,0-0.1,0.1-0.2,0.1c0,0,0,0-0.1,0h-0.1h-0.1c-0.2,0.1-0.5,0-0.7,0.2h-0.1
			c-0.1,0-0.2,0.1-0.3,0.1h-0.1c-0.2,0-0.3,0-0.4,0h-0.1c-0.1,0-0.3,0.1-0.4,0.1h0.1c-0.1,0.1-0.2,0.1-0.3,0.1L100.1,211.5
			C100.2,211.4,100.2,211.4,100.1,211.5C100.1,211.4,100.1,211.5,100.1,211.5z"/>
		<path class="st0" d="M103.1,211C103,210.9,103,211,103.1,211L103.1,211z"/>
		<path class="st0" d="M115.6,219.5L115.6,219.5L115.6,219.5L115.6,219.5z"/>
		<path class="st0" d="M119.7,211.2c-0.1-0.1-0.2-0.1-0.3-0.1c0.1,0.1,0.1,0.1,0.1,0.1c0.1,0,0.2,0.1,0.3,0.1
			C119.8,211.3,119.8,211.3,119.7,211.2z"/>
		<path class="st0" d="M116.9,210.6c0.2,0.1,0.2,0.1,0.3,0.1C117.1,210.7,117.1,210.6,116.9,210.6
			C117,210.6,116.9,210.6,116.9,210.6L116.9,210.6L116.9,210.6z"/>
		<path class="st0" d="M116.8,210.6L116.8,210.6C116.8,210.6,116.8,210.5,116.8,210.6z"/>
		<path class="st0" d="M117.9,214.3L117.9,214.3C117.9,214.3,117.9,214.4,117.9,214.3z"/>
		<path class="st0" d="M107.2,211.1C107.3,211.2,107.4,211.2,107.2,211.1L107.2,211.1z"/>
		<path class="st0" d="M117.7,214c0,0,0,0-0.2-0.1C117.6,213.9,117.6,214,117.7,214z"/>
		<path class="st0" d="M117.5,214.7L117.5,214.7C117.4,214.7,117.4,214.7,117.5,214.7z"/>
		<path class="st0" d="M132.8,229.8c0,0,0.1,0.1,0.2,0.1C133,229.9,132.9,229.8,132.8,229.8z"/>
		<path class="st0" d="M115.8,219.6c0.1,0.1,0.1,0.1,0.1,0.2L115.8,219.6c0,0,0,0,0-0.1c0-0.1,0-0.1,0-0.2c-0.1,0.1-0.1,0.1-0.1,0.1
			L115.8,219.6L115.8,219.6L115.8,219.6z"/>
		<path class="st0" d="M117.4,214.8c0,0,0-0.1-0.1-0.1L117.4,214.8z"/>
		<path class="st0" d="M128.5,228.9c-0.1-0.1-0.1-0.1-0.1-0.1C128.4,228.9,128.4,228.9,128.5,228.9z"/>
		<path class="st0" d="M116.9,210.5L116.9,210.5C116.9,210.5,117,210.5,116.9,210.5L116.9,210.5z"/>
		<path class="st0" d="M99.8,215c-0.1,0-0.1,0-0.2,0l-0.1,0.1c0,0,0,0-0.1,0.1c0,0.1,0,0.1,0,0.1c0.1,0.1,0.2,0.1,0.3,0.1h0.1
			c0-0.1,0.1-0.1,0.1-0.1c0.1,0,0.1,0,0.1,0v-0.1h-0.1c0-0.1,0-0.2,0-0.2S99.9,215,99.8,215z"/>
		<path class="st0" d="M115.6,219.6L115.6,219.6C115.6,219.5,115.6,219.5,115.6,219.6L115.6,219.6z"/>
		<path class="st0" d="M115.6,219.6l-0.1-0.1C115.5,219.6,115.5,219.6,115.6,219.6z"/>
		<path class="st0" d="M117.5,210.9L117.5,210.9c0.2,0,0.2,0.1,0.3,0.1c0,0.1,0.1,0.1,0.2,0.1s0.1,0,0.1,0c0.1,0.1,0.2,0.1,0.3,0.2
			c0.1,0,0.2,0,0.2,0.1c0.1,0.1,0.1,0.1,0.2,0.1c0.1,0.1,0.2,0.1,0.3,0.2c0.3,0.1,0.6,0.3,0.8,0.4h-0.1c0.2,0.1,0.3,0.1,0.5,0.2
			c0-0.1,0-0.1,0-0.1c0.1,0.1,0.2,0.1,0.2,0.1c0.1,0.1,0.2,0.1,0.3,0.1c-0.1-0.1-0.2-0.1-0.3-0.2c0.2,0,0.3,0,0.4,0.1
			s0.1,0.1,0.2,0.1h0.1h0.1c0-0.1-0.1-0.1-0.1-0.1c0.1,0,0.1,0,0.1,0h0.1c-0.1-0.1-0.2-0.1-0.3-0.1c-0.5-0.1-1-0.3-1.5-0.5
			c-0.3-0.1-0.6-0.3-0.9-0.4h0.1c-0.1,0-0.2,0-0.3-0.1c0.1,0,0.1,0,0.1,0c-0.1,0-0.1-0.1-0.2-0.1h0.1c-0.1,0-0.1-0.1-0.2-0.1
			c0,0-0.3-0.2-0.4-0.2h-0.1h-0.1L117.5,210.9L117.5,210.9L117.5,210.9l-0.2-0.2h-0.1l0,0C117.2,210.9,117.4,210.8,117.5,210.9z"/>
		<path class="st0" d="M113.7,210.7C113.7,210.7,113.8,210.7,113.7,210.7c0.2,0,0.2,0,0.2,0s0,0,0.1,0c0-0.1-0.1-0.1-0.1-0.1h0.1
			c-0.1-0.1-0.2-0.1-0.2-0.1h-0.1c-0.1,0-0.1,0-0.1,0l0,0l0.1-0.1c-0.1,0-0.1,0-0.1,0h-0.1h-0.1v0.1h-0.1c0.1,0,0.1,0.1,0.2,0.1h0.1
			C113.5,210.5,113.6,210.5,113.7,210.7z"/>
		<path class="st0" d="M113.5,211.3C113.4,211.3,113.4,211.4,113.5,211.3L113.5,211.3z"/>
		<path class="st0" d="M146.2,237.6c0-0.1,0-0.1-0.1-0.1C146.1,237.5,146.1,237.5,146.2,237.6z"/>
		<path class="st0" d="M113.6,223.3c0.1,0,0.2,0,0.2,0c0.1,0,0.1,0,0.1,0c0,0.1,0,0.1-0.1,0.1c0,0-0.1,0,0,0.1
			c0.2,0.1,0.3,0.1,0.5,0.1c0,0.1,0,0.1-0.1,0.1c0,0.1,0,0.1,0,0.2l-0.1,0.1c0,0.1,0,0.1,0,0.2c-0.1,0.1-0.1,0.1-0.1,0.1h-0.1
			c0,0.1-0.1,0.1-0.1,0.1c0.1,0.1,0.1,0.1,0.2,0.1l-0.1,0.1c0,0.1,0.1,0.1,0.1,0.1v0.1c0.1,0,0.2,0,0.2,0v0.1c0.1,0,0.2-0.1,0.3-0.1
			c0.3-0.1,0.5-0.3,0.8-0.4c0.1-0.1,0.2-0.1,0.3-0.1c0-0.1,0-0.2,0-0.2s0-0.1,0-0.2l-0.1-0.1c-0.1-0.1-0.1-0.2-0.1-0.3h-0.1
			c0-0.1,0-0.1-0.1-0.2c0.1-0.1,0.2-0.2,0.3-0.3c0-0.1,0-0.1,0-0.1l-0.1-0.1c-0.1-0.1-0.2-0.1-0.3-0.2c0,0,0-0.1-0.1-0.1
			c0,0-0.1,0-0.2,0c0,0.1,0,0.1,0,0.1c-0.1,0-0.2-0.1-0.3-0.1c-0.2,0.1-0.3,0.1-0.4,0.2v0.1c0,0.1,0,0.1-0.1,0.1
			c0.1,0.1,0.1,0.1,0.2,0.1s0.1,0,0.1,0.1l-0.1,0.1H114c-0.1,0-0.3,0-0.4-0.1C113.6,223.2,113.6,223.2,113.6,223.3
			C113.6,223.2,113.6,223.3,113.6,223.3z"/>
		<path class="st0" d="M114.4,220.9c0-0.1,0-0.1-0.1-0.1s-0.2,0.1-0.3,0.1c0,0.1,0.1,0.2,0.1,0.3h0.1l0.1-0.1
			C114.4,221,114.4,221,114.4,220.9z"/>
		<path class="st0" d="M149,239.2c-0.2-0.7-0.6-1.8-1.1-2.9C148.2,237,148.5,237.9,149,239.2z"/>
		<path class="st0" d="M149,239.2L149,239.2L149,239.2C149,239.1,149,239.1,149,239.2z"/>
		<path class="st0" d="M114,210.5C114,210.4,114,210.4,114,210.5C113.9,210.4,114,210.4,114,210.5z"/>
		<path class="st0" d="M114.2,221.7C114.2,221.6,114.3,221.6,114.2,221.7c-0.1-0.1-0.1-0.1-0.1-0.1S114.1,221.7,114.2,221.7z"/>
		<path class="st0" d="M113,210.1c0.1,0,0.2,0,0.4,0.1l0,0h0.1c0,0,0,0,0.1,0h0.1l0,0c0.1,0,0.1,0,0.3,0c-0.1-0.1-0.1-0.1-0.2-0.1
			l0,0h-0.1h-0.1c0,0,0,0-0.1,0c-0.2-0.1-0.2-0.1-0.1,0h-0.1c-0.1-0.1-0.1-0.1-0.1,0h-0.1H113L113,210.1z"/>
		<path class="st0" d="M112.9,211c0-0.1,0-0.1-0.1-0.2C112.8,210.9,112.8,210.9,112.9,211C112.8,210.9,112.8,211,112.9,211z"/>
		<path class="st0" d="M114.2,221.3c0-0.1,0-0.1-0.1-0.1l0,0c0,0.1,0,0.2,0,0.3s0.1,0.1,0.1,0.1
			C114.2,221.5,114.2,221.5,114.2,221.3L114.2,221.3z"/>
		<path class="st0" d="M113.3,210c-0.1,0-0.1,0-0.2,0C113.1,210.1,113.2,210.1,113.3,210L113.3,210z"/>
		<path class="st0" d="M113.9,210.2C113.9,210.2,113.9,210.2,113.9,210.2c0,0.1,0.1,0.1,0.2,0.1c0.1,0,0.1,0,0.1,0h-0.1
			c0,0,0,0-0.1-0.1C114,210.2,114,210.2,113.9,210.2C114,210.2,113.9,210.2,113.9,210.2L113.9,210.2z"/>
		<path class="st0" d="M114.2,210.3C114.2,210.2,114.1,210.2,114.2,210.3L114.2,210.3z"/>
		<path class="st0" d="M149.1,239.5c0-0.1,0-0.2-0.1-0.2C149.1,239.4,149.1,239.4,149.1,239.5z"/>
		<path class="st0" d="M114.7,209.8C114.7,209.8,114.7,209.8,114.7,209.8C114.6,209.8,114.6,209.9,114.7,209.8z"/>
		<path class="st0" d="M117,209.6C117,209.6,116.9,209.6,117,209.6C116.9,209.6,117,209.7,117,209.6L117,209.6z"/>
		<path class="st0" d="M149,246.2L149,246.2c0,0.2,0,0.2,0,0.2C149.1,246.4,149.1,246.2,149,246.2C149.1,246.1,149,246.1,149,246.2
			C148.9,246.3,148.9,246.3,149,246.2z"/>
		<path class="st0" d="M116.9,209.7C116.9,209.7,116.8,209.6,116.9,209.7C116.8,209.6,116.8,209.7,116.9,209.7L116.9,209.7z"/>
		<path class="st0" d="M116.9,209.6L116.9,209.6L116.9,209.6h-0.2C116.8,209.6,116.8,209.6,116.9,209.6
			C116.8,209.6,116.9,209.6,116.9,209.6z"/>
		<path class="st0" d="M114.6,221.5l0.1,0.1C114.7,221.5,114.6,221.5,114.6,221.5z"/>
		<path class="st0" d="M117.3,209.6c-0.1,0-0.1,0-0.2,0C117.1,209.6,117.2,209.7,117.3,209.6C117.3,209.7,117.3,209.6,117.3,209.6z"
			/>
		<path class="st0" d="M116.4,209.4C116.3,209.4,116.4,209.5,116.4,209.4L116.4,209.4z"/>
		<path class="st0" d="M113.7,209c0.2,0.1,0.8,0.2,1,0.2c-0.1-0.1-0.2-0.1-0.3-0.1c-0.2,0-0.3-0.1-0.4-0.1l0,0c0,0,0,0-0.1,0
			L113.7,209L113.7,209L113.7,209L113.7,209z"/>
		<path class="st0" d="M145.1,245.8v0.1c0.1,0,0.1,0,0.2,0C145.2,245.6,145.1,245.7,145.1,245.8z"/>
		<path class="st0" d="M113.7,209C113.6,209,113.6,209,113.7,209C113.6,209.1,113.6,209.1,113.7,209z"/>
		<path class="st0" d="M114.8,212.9c0.1,0,0.1,0,0.2,0.1C115,212.9,115,212.9,114.8,212.9z"/>
		<path class="st0" d="M115.8,209.3c-0.1-0.1-0.2-0.1-0.3,0C115.6,209.3,115.6,209.3,115.8,209.3L115.8,209.3z"/>
		<path class="st0" d="M145,245.4c0,0.1,0,0.1,0.1,0.1C145.1,245.4,145,245.4,145,245.4z"/>
		<path class="st0" d="M115.4,220.5l0.1,0.1C115.5,220.5,115.5,220.5,115.4,220.5L115.4,220.5c-0.1-0.1-0.1-0.1-0.1-0.1
			C115.2,220.4,115.3,220.5,115.4,220.5C115.3,220.5,115.4,220.5,115.4,220.5z"/>
		<path class="st0" d="M112.3,212.1L112.3,212.1L112.3,212.1C112.2,212.1,112.2,212.1,112.3,212.1z"/>
		<path class="st0" d="M110.9,214.8C110.9,214.9,111,214.9,110.9,214.8L110.9,214.8z"/>
		<path class="st0" d="M107.5,212.2c0,0.1,0,0.1,0.1,0.2C107.6,212.3,107.5,212.3,107.5,212.2z"/>
		<path class="st0" d="M107.7,217.5L107.7,217.5c0.2,0,0.3,0.1,0.4,0.1c0,0,0,0-0.1,0l-0.1,0.1c-0.1,0.1-0.3,0.1-0.4,0.1
			c0,0.3,0.3,0.1,0.5,0.1c0.1,0.1,0.1,0.1,0.2,0.2c0.1,0,0,0.1,0,0.2c-0.1,0-0.2-0.1-0.2-0.1c0,0.1,0,0.1,0,0.2
			c0.1-0.1,0.2-0.1,0.4-0.1c0.1,0,0.3,0.1,0.4,0.2c0-0.1,0-0.1,0-0.1c0.1,0,0.2,0,0.3,0c0.1,0.2,0.3,0.1,0.3,0.1v-0.1h0.1
			c0-0.1,0-0.1,0-0.1h0.1l0.1-0.1c0.1,0,0.1,0,0.2,0c0-0.1,0.1-0.1,0.2-0.2c0.1,0,0.2-0.1,0.3-0.1v-0.1c0-0.1,0.1-0.1,0.1-0.1
			l0.2-0.1c0-0.3-0.3-0.4-0.5-0.4v-0.1h-0.1c0-0.1,0-0.1,0-0.2c0,0-0.1,0.1-0.2,0.1c-0.1-0.1-0.1-0.1-0.3-0.1c0,0.1,0,0.2,0,0.2
			c-0.1,0.1-0.1,0-0.2,0s-0.1,0.1-0.1,0.1s-0.1,0-0.2-0.1l0.1,0.1c-0.1,0-0.1-0.1-0.2-0.2c0,0-0.2,0-0.1,0.2c-0.1,0-0.2-0.1-0.3-0.1
			c0.1,0.3,0.1,0.3,0,0.3s0,0.1-0.1,0.2c-0.1-0.1-0.1-0.2-0.1-0.3c-0.2-0.1-0.3-0.2-0.4-0.2s-0.1,0-0.2,0v0.1c0,0,0,0,0.1,0
			c0,0.1-0.1,0-0.2,0c0,0-0.1,0-0.1,0.1s0,0.1,0,0.1c-0.1,0-0.1,0-0.1,0v0.1h-0.1C107.4,217.6,107.6,217.6,107.7,217.5z"/>
		<path class="st0" d="M110.9,214.8C110.8,214.9,110.9,214.9,110.9,214.8L110.9,214.8z"/>
		<path class="st0" d="M108,213.4c0.1,0,0.1,0,0.2,0C108.1,213.3,108.1,213.3,108,213.4z"/>
		<path class="st0" d="M108,213.4c0.1-0.1,0.1-0.1,0-0.2c-0.1,0-0.1,0-0.1,0h-0.1c0,0.1,0,0.1,0,0.1S107.8,213.4,108,213.4z"/>
		<path class="st0" d="M107.4,212c0,0,0,0,0,0.1C107.5,212,107.5,212,107.4,212z"/>
		<path class="st0" d="M107.3,211.6C107.3,211.6,107.3,211.7,107.3,211.6C107.3,211.7,107.3,211.7,107.3,211.6z"/>
		<path class="st0" d="M112.3,211.2c0.1,0.1,0.2,0.1,0.3,0.1c0-0.1,0-0.1,0-0.1c0,0.1,0.1,0.1,0.1,0.1c0.1-0.1,0.1-0.1,0.1-0.1
			s-0.1,0-0.1-0.1h-0.1C112.5,211.1,112.5,211.1,112.3,211.2C112.3,211.1,112.3,211.1,112.3,211.2c-0.1-0.1-0.1-0.1-0.1-0.2
			c0-0.1,0,0-0.1,0c0,0,0,0-0.1,0h-0.1c0,0.1,0.1,0.1,0.1,0.1h-0.1C112,211.2,112.1,211.2,112.3,211.2z"/>
		<path class="st0" d="M123,215.7c0,0-0.1,0-0.2-0.1C122.8,215.7,122.9,215.7,123,215.7z"/>
		<path class="st0" d="M121.8,217.3c0-0.1-0.1-0.1-0.1-0.1L121.8,217.3z"/>
		<path class="st0" d="M121.9,213.3c-0.1-0.1-0.3-0.1-0.4-0.1c0.1,0.1,0.1,0.1,0.2,0.2c0.1,0.1,0.2,0.1,0.3,0.1
			S122,213.4,121.9,213.3z"/>
		<path class="st0" d="M112.2,212L112.2,212L112.2,212L112.2,212z"/>
		<path class="st0" d="M123.6,212.5C123.5,212.5,123.5,212.5,123.6,212.5L123.6,212.5C123.5,212.5,123.5,212.6,123.6,212.5z"/>
		<path class="st0" d="M112.2,211.2L112.2,211.2C112.1,211.3,112.2,211.3,112.2,211.2z"/>
		<path class="st0" d="M113.6,209.4c0.1,0,0.2,0,0.3,0l0,0c0,0,0,0,0.1,0c0,0-0.1-0.1-0.2-0.1h0.1h0.1h0.1c0.1,0,0.1,0,0.2,0
			c0-0.1-0.3-0.1-0.3-0.1c-0.2,0-0.3,0-0.6,0.1c-0.2,0-0.2,0-0.2,0h-0.1c0,0,0,0-0.1,0h-0.1h-0.1C113,209.3,113.3,209.4,113.6,209.4
			L113.6,209.4z"/>
		<path class="st0" d="M113.3,218.8L113.3,218.8C113.1,218.8,113.2,218.9,113.3,218.8L113.3,218.8c0,0.1,0.1,0.1,0.1,0.2
			L113.3,218.8c0.2,0,0.2,0,0.2,0C113.4,218.8,113.4,218.8,113.3,218.8z"/>
		<path class="st0" d="M113.5,219.3c0-0.1-0.1-0.1-0.2-0.1C113.4,219.3,113.4,219.3,113.5,219.3z"/>
		<path class="st0" d="M122.3,218.7L122.3,218.7c-0.1,0.1-0.1,0.1,0,0.2C122.4,218.9,122.4,218.9,122.3,218.7
			C122.4,218.8,122.4,218.8,122.3,218.7z"/>
		<path class="st0" d="M111.3,212C111.4,212,111.4,212,111.3,212c0.1,0,0.2,0.1,0.2,0.1h0.1c0.1,0.1,0.2,0.1,0.3,0.1
			c0.1-0.1,0-0.1-0.1-0.2h0.1l0,0h0.1c0-0.1,0-0.1,0-0.1c0.1,0,0.1,0.1,0.2,0.1c0.1,0.1,0.1,0.1,0.1,0.1c-0.1,0-0.1,0-0.1,0
			s0,0,0.1,0.1h-0.1c0.3,0.1,0.6,0.2,0.9,0.2c-0.2-0.1-0.3-0.2-0.4-0.3c0,0,0,0,0.1,0c-0.1-0.1-0.2-0.1-0.3-0.2c0.1,0,0.1,0,0.1,0
			c-0.1,0-0.1-0.1-0.2-0.1c0,0,0,0,0.1,0c0-0.1-0.1-0.1-0.1-0.1c0-0.1,0-0.1,0.1-0.1c0.2,0,0.4,0.1,0.6,0.2c0,0.1,0.1,0.1,0.1,0.1
			l0.1-0.1c0.1,0,0.1,0.1,0.2,0.1v-0.1c-0.1,0-0.1,0-0.1,0c0-0.1-0.1-0.1-0.1-0.1l-0.3-0.1c-0.1,0-0.2,0-0.3-0.1
			c0-0.1-0.1-0.1-0.2-0.1s-0.1,0-0.1,0h-0.1l0,0h-0.1c-0.1,0-0.2-0.1-0.3-0.1l0.1,0.1c-0.2-0.1-0.3-0.1-0.5-0.1c0,0.1,0,0.1-0.3,0.4
			c-0.1-0.1-0.2-0.1-0.3,0c0,0.1,0.1,0.1,0.1,0.1h0C111.1,211.9,111.2,212,111.3,212z"/>
		<path class="st0" d="M113.2,246.6c0-0.1,0-0.1-0.1-0.1C113.1,246.5,113.1,246.6,113.2,246.6z"/>
		<path class="st0" d="M135,232.8l0.1,0.1C135.1,232.8,135.1,232.8,135,232.8z"/>
		<path class="st0" d="M84,290.2C84,290.2,84,290.1,84,290.2c0-0.1,0-0.1-0.1-0.1L84,290.2z"/>
		<path class="st0" d="M84.4,290.7C84.4,290.7,84.4,290.8,84.4,290.7C84.5,290.8,84.5,290.7,84.4,290.7z"/>
		<path class="st0" d="M84.7,291.2C84.8,291.2,84.7,291.1,84.7,291.2L84.7,291.2z"/>
		<path class="st0" d="M131.7,259.1c0-0.1,0.1-0.2,0.1-0.2c-0.1,0-0.1,0-0.2,0c-0.1,0-0.1,0-0.1,0v0.1l-0.1,0.1
			c0,0.1,0.1,0.2,0.2,0.2C131.7,259.2,131.7,259.2,131.7,259.1z"/>
		<path class="st0" d="M71.5,253.7c0,0,0,0,0.1-0.2C71.4,253.5,71.5,253.6,71.5,253.7z"/>
		<path class="st0" d="M83.5,289.3C83.4,289.3,83.4,289.3,83.5,289.3c0,0.1,0.1,0.2,0.2,0.2C83.6,289.4,83.6,289.4,83.5,289.3z"/>
		<path class="st0" d="M84.9,291.4c0.1,0,0.2,0.1,0.2,0.1C85.1,291.4,84.9,291.3,84.9,291.4z"/>
		<path class="st0" d="M84.9,291.2l0.1,0.1C85,291.2,85,291.2,84.9,291.2z"/>
		<path class="st0" d="M87,292.9c-0.1-0.1-0.1-0.1-0.1-0.1L87,292.9z"/>
		<path class="st0" d="M87.4,293.2c-0.1-0.1-0.1-0.1-0.1-0.1S87.3,293.2,87.4,293.2z"/>
		<path class="st0" d="M87.4,293.2C87.4,293.1,87.3,293.1,87.4,293.2L87.4,293.2z"/>
		<path class="st0" d="M86.8,292.9c-0.1-0.1-0.1-0.1-0.2-0.1C86.6,292.8,86.7,292.8,86.8,292.9z"/>
		<path class="st0" d="M85.4,291.9c0.1,0,0.1,0,0.2,0.1C85.6,291.9,85.5,291.9,85.4,291.9z"/>
		<path class="st0" d="M86.7,292.9c-0.1,0-0.2-0.1-0.2-0.1C86.6,292.9,86.6,292.9,86.7,292.9z"/>
		<path class="st0" d="M86.2,292.6c0,0.1,0,0.1,0.2,0.2h0.1l-0.1-0.1C86.3,292.7,86.3,292.6,86.2,292.6z"/>
		<path class="st0" d="M68.5,228.9C68.6,228.8,68.5,228.8,68.5,228.9L68.5,228.9z"/>
		<path class="st0" d="M81.1,215.7c0,0,0,0.1-0.1,0.1L81.1,215.7C81.1,215.7,81.1,215.7,81.1,215.7z"/>
		<path class="st0" d="M87.4,293.2L87.4,293.2C87.5,293.1,87.4,293.1,87.4,293.2z"/>
		<path class="st0" d="M79.8,216.6L79.8,216.6C79.8,216.7,79.8,216.7,79.8,216.6z"/>
		<path class="st0" d="M79.8,216.7c-0.3,0.1-0.3,0.1-0.2,0.1c-0.5,0.3-0.9,0.6-1.3,1C78.8,217.4,79.3,217,79.8,216.7z"/>
		<path class="st0" d="M84.7,213.3c0,0,0.1,0,0.2-0.1C84.8,213.2,84.8,213.3,84.7,213.3z"/>
		<path class="st0" d="M89.3,211.8c0.1,0,0.2-0.1,0.2-0.1C89.4,211.7,89.4,211.7,89.3,211.8z"/>
		<path class="st0" d="M84.9,213.2c0.1,0,0.2-0.1,0.2-0.1C85,213.1,85,213.1,84.9,213.2z"/>
		<path class="st0" d="M88.2,212.3c0,0,0.1,0,0.2-0.1C88.3,212.2,88.3,212.3,88.2,212.3z"/>
		<path class="st0" d="M131.4,259.1C131.3,259.2,131.4,259.2,131.4,259.1L131.4,259.1z"/>
		<path class="st0" d="M66.4,233.4c0-0.1,0.1-0.1,0.1-0.2C66.4,233.2,66.4,233.3,66.4,233.4z"/>
		<path class="st0" d="M66.5,232.4c0-0.1,0.1-0.1,0.1-0.2C66.5,232.3,66.5,232.3,66.5,232.4z"/>
		<path class="st0" d="M97.9,212.2c-0.1,0-0.1,0-0.1,0.1C97.8,212.3,97.8,212.2,97.9,212.2z"/>
		<path class="st0" d="M86.1,292L86.1,292h-0.2c0.1,0,0.3,0,0.4,0.1C86.2,292,86.2,292,86.1,292L86.1,292z"/>
		<path class="st0" d="M88.9,294.1C88.9,294,88.8,294,88.9,294.1L88.9,294.1z"/>
		<path class="st0" d="M86.2,292.1c0.1,0.1,0.2,0.1,0.2,0.1S86.3,292.1,86.2,292.1z"/>
		<path class="st0" d="M83.1,288.2c0-0.1-0.1-0.3-0.2-0.4h-0.1C83,288,83.1,288.2,83.1,288.2z"/>
		<path class="st0" d="M89.6,211.7c0.1-0.1,0.2-0.1,0.2-0.1C89.7,211.6,89.7,211.6,89.6,211.7z"/>
		<path class="st0" d="M114.2,254.3L114.2,254.3L114.2,254.3z"/>
		<path class="st0" d="M92,293.6C92,293.4,91.9,293.4,92,293.6L92,293.6z"/>
		<path class="st0" d="M92,293.6C91.9,293.6,91.8,293.6,92,293.6l-0.1,0.2c0,0,0,0,0.1,0C92,293.7,92,293.7,92,293.6
			c0.1,0.2,0.1,0.2,0.2,0.2s0.1,0,0.1,0c0.1,0,0.1,0,0.1,0c-0.1-0.1-0.1-0.1,0-0.1c0.2,0,0.2,0,0.1-0.1
			C92.4,293.5,92.2,293.5,92,293.6z"/>
		<path class="st0" d="M68.1,238.5c0,0,0,0-0.1,0.1L68.1,238.5z"/>
		<path class="st0" d="M90.7,285.3L90.7,285.3c0.1,0,0.1,0,0.1-0.1L90.7,285.3C90.7,285.2,90.7,285.3,90.7,285.3z"/>
		<path class="st0" d="M78.2,251.2L78.2,251.2c-0.3,0.1-0.2,0.3-0.2,0.3c0,0.1,0.1,0.1,0.1,0.1h0.1c0.1,0,0.1,0,0.1,0
			C78.3,251.2,78.3,251.2,78.2,251.2z"/>
		<path class="st0" d="M114.5,254.2L114.5,254.2c-0.1-0.1-0.1,0-0.2,0s-0.1,0-0.1,0.1C114.5,254.3,114.5,254.3,114.5,254.2z"/>
		<path class="st0" d="M78.1,251.2C78,251.2,78,251.3,78.1,251.2L78.1,251.2z"/>
		<path class="st0" d="M91.4,284.6c-0.1,0-0.1,0-0.2,0.1C91.3,284.7,91.4,284.7,91.4,284.6z"/>
		<path class="st0" d="M130.2,261.8c-0.1,0.1-0.1,0.1-0.1,0.2L130.2,261.8c0.1,0,0.1,0,0.1-0.1C130.3,261.8,130.2,261.8,130.2,261.8
			z"/>
		<path class="st0" d="M88.6,293.6c-0.2-0.1-0.4-0.2-0.6-0.3h-0.1c0.1,0.1,0.2,0.2,0.2,0.3c-0.1,0-0.1,0-0.2,0
			c0.3,0.1,0.4,0.2,0.6,0.2v-0.1c0.1,0,0.1,0.1,0.2,0.1l0,0c0,0.1,0.1,0.1,0.1,0.1s0,0,0-0.1c0.1,0.1,0.3,0.1,0.4,0.2
			c-0.2-0.1-0.4-0.2-0.6-0.3C88.5,293.7,88.6,293.7,88.6,293.6z"/>
		<path class="st0" d="M90.2,294.5c0.1,0,0.1,0,0.2,0C90.3,294.5,90.3,294.5,90.2,294.5L90.2,294.5z"/>
		<path class="st0" d="M87.8,293.2c-0.1,0.1-0.1,0.1,0,0.2h0.1v-0.1C87.9,293.3,87.8,293.3,87.8,293.2z"/>
		<path class="st0" d="M87.8,293.4c-0.1-0.1-0.1-0.1-0.1-0.1S87.7,293.4,87.8,293.4z"/>
		<path class="st0" d="M90.2,294.3c0,0.1,0.1,0.1,0.1,0.1L90.2,294.3z"/>
		<path class="st0" d="M91,294.4c-0.1-0.1-0.1-0.1-0.2-0.1C90.9,294.4,90.9,294.4,91,294.4z"/>
		<path class="st0" d="M114.2,254.1c-0.1,0-0.1,0.1-0.1,0.2h0.1c0,0,0-0.1,0,0C114.2,254.2,114.2,254.2,114.2,254.1z"/>
		<path class="st0" d="M91.3,293.4c0-0.1,0-0.1-0.1-0.1C91.2,293.4,91.2,293.4,91.3,293.4z"/>
		<path class="st0" d="M91.8,293.4L91.8,293.4h-0.2c0,0-0.1,0-0.2,0c0,0.1,0.1,0.1,0.1,0.1s-0.1,0,0,0c0,0,0,0,0,0.1l0,0l0,0l0,0
			l0,0C91.6,293.6,91.9,293.6,91.8,293.4z"/>
		<path class="st0" d="M91.2,293.5C91.2,293.5,91.2,293.5,91.2,293.5S91.3,293.5,91.2,293.5C91.3,293.5,91.3,293.5,91.2,293.5
			C91.3,293.5,91.3,293.5,91.2,293.5z"/>
		<path class="st0" d="M91.2,294.4c-0.1-0.1-0.1-0.1-0.2-0.1C91.1,294.4,91.1,294.4,91.2,294.4z"/>
		<path class="st0" d="M91,294.3C90.9,294.3,91,294.4,91,294.3L91,294.3z"/>
		<path class="st0" d="M91.4,293.6C91.4,293.6,91.5,293.6,91.4,293.6C91.4,293.5,91.4,293.5,91.4,293.6L91.4,293.6z"/>
		<path class="st0" d="M91.9,293.8L91.9,293.8c0,0,0-0.1-0.1-0.1C91.8,293.7,91.8,293.7,91.9,293.8z"/>
		<path class="st0" d="M96.8,210.5c0,0,0,0-0.1,0.1C96.7,210.7,96.8,210.7,96.8,210.5z"/>
		<path class="st0" d="M96.7,210.6c-0.1-0.1-0.1-0.1-0.1-0.1c-0.1,0-0.2,0-0.3,0.1l0.1,0.1C96.4,210.7,96.6,210.6,96.7,210.6z"/>
		<path class="st0" d="M96.3,211c0.2,0,0.3-0.1,0.4-0.2C96.6,210.8,96.5,210.9,96.3,211z"/>
		<path class="st0" d="M133.9,231.4C133.9,231.5,133.9,231.5,133.9,231.4C134,231.5,134,231.5,133.9,231.4z"/>
		<path class="st0" d="M96.7,210.4C96.6,210.4,96.6,210.4,96.7,210.4c-0.1,0-0.2,0.1-0.3,0.1h0.1C96.6,210.5,96.6,210.5,96.7,210.4z
			"/>
		<path class="st0" d="M133.8,233.4c0,0,0.1,0,0.2,0c0.3,0,0.3,0,0.4,0.1c0.2-0.1,0.4-0.1,0.5-0.2c-0.1,0-0.1-0.1-0.1-0.1
			c-0.1,0-0.2,0-0.2,0.1c0-0.1,0-0.1-0.1-0.1s-0.1,0-0.1,0c0-0.1-0.1,0-0.1,0l-0.1,0.1l-0.1-0.1c-0.1-0.1-0.1-0.1-0.2-0.1
			c-0.1,0-0.2,0.1-0.2,0.1C133.7,233.3,133.7,233.4,133.8,233.4z"/>
		<path class="st0" d="M97.3,210.5c-0.1,0-0.1,0-0.2,0H97l0,0h-0.1l0.1,0.1C97.1,210.6,97.3,210.5,97.3,210.5z"/>
		<path class="st0" d="M133.7,232.3c0,0,0,0-0.1-0.1C133.6,232.3,133.7,232.3,133.7,232.3z"/>
		<path class="st0" d="M133.5,230.9L133.5,230.9L133.5,230.9c0.1,0.1,0.1,0.2,0.1,0.3C133.7,231.1,133.7,231,133.5,230.9
			L133.5,230.9z"/>
		<path class="st0" d="M96.1,211.2L96.1,211.2c-0.2,0-0.2,0.1-0.3,0.1C95.9,211.2,96,211.2,96.1,211.2c-0.1-0.1-0.2,0-0.3,0h0.1
			c-0.1,0-0.1,0.1-0.2,0.1h-0.1c0-0.1,0.1-0.1,0.1-0.1l0,0h-0.1c-0.1,0-0.1,0.1-0.2,0.1h0.1c0,0.1,0,0.1-0.1,0.1s-0.2,0-0.2,0
			c0.1,0.1,0.1,0.1,0.2,0.1c0,0-0.1,0.1-0.2,0.1c0,0-0.1,0-0.1,0.1h0.1c0.1,0,0.1,0.1,0.2,0.1l0,0c-0.2,0.2,0,0.2,0.2,0.3
			c0-0.1,0.1-0.1,0.1-0.1s0,0-0.1,0c0,0,0.4-0.2,0.5-0.2c0,0,0.1,0,0.1-0.1l0,0h-0.1c-0.1,0-0.1,0-0.2,0c0-0.1,0.1-0.1,0.1-0.1
			c-0.1,0-0.2,0-0.2,0c-0.1,0.1-0.1,0.1-0.2,0.1c0.1-0.1,0.1-0.1,0.2-0.1s0.1-0.1,0.2-0.1c-0.1,0-0.1,0-0.1,0
			c0.1-0.1,0.3-0.1,0.4-0.2c0.1,0,0.1,0,0.2-0.1h-0.1h-0.1h-0.1C96.1,211.2,96.1,211.2,96.1,211.2z"/>
		<path class="st0" d="M95.1,211.9c-0.1,0-0.2,0-0.2,0.1C95,211.9,95,211.9,95.1,211.9z"/>
		<path class="st0" d="M96,211l-0.1,0.1L96,211C96,211.1,96,211,96,211z"/>
		<path class="st0" d="M96.2,211.6l-0.1,0.1C96.2,211.7,96.2,211.7,96.2,211.6z"/>
		<path class="st0" d="M95.8,211.1L95.8,211.1L95.8,211.1L95.8,211.1z"/>
		<path class="st0" d="M97.1,210.9L97.1,210.9C97,210.9,96.9,210.9,97.1,210.9L97.1,210.9L97.1,210.9L97.1,210.9
			c0.1,0.1,0.2,0.1,0.3,0c0.1-0.1,0.1-0.1,0.1-0.1C97.4,210.8,97.3,210.8,97.1,210.9L97.1,210.9z"/>
		<path class="st0" d="M133.4,231.5C133.4,231.4,133.3,231.4,133.4,231.5L133.4,231.5z"/>
		<path class="st0" d="M133.5,230.4C133.5,230.4,133.4,230.4,133.5,230.4L133.5,230.4c-0.2,0-0.2,0-0.2,0c0,0.1-0.1,0.1-0.1,0.1
			l0.1,0.1c0.1,0,0.2,0,0.4,0C133.6,230.5,133.6,230.4,133.5,230.4z"/>
		<path class="st0" d="M96.2,211.8c0,0-0.1,0.1-0.2,0.1l-0.3,0.2c0,0.1,0,0.2,0.2,0.4c0.1-0.1,0.1-0.1,0.2-0.1c0.2,0,0.3,0,0.5,0.1
			c0.1,0,0.2-0.1,0.3-0.1c-0.1,0-0.2,0.1-0.2,0.1c0.1,0,0.1,0.1,0.2,0.1c0.1,0.1,0.2,0,0.3,0c0-0.1,0.1-0.1,0.1-0.1
			c0.1,0,0.1,0,0.1,0s0.1-0.1,0-0.1c0,0,0.1,0,0.2-0.1c0-0.1,0-0.2-0.1-0.2h-0.6c-0.1,0-0.2,0-0.2-0.1c0.1-0.1,0.3-0.1,0.2-0.2
			c0-0.1,0.1-0.1,0.1-0.1c0.1-0.1,0.1-0.1,0.1-0.1c0-0.1,0.1-0.1,0.1-0.1s0,0,0-0.1h-0.1c0,0,0.1,0,0.1-0.1c-0.1,0-0.1,0-0.1,0
			c-0.1,0-0.3,0-0.4,0.1c0,0.1-0.1,0.1-0.1,0.1h0.1C96.6,211.7,96.4,211.7,96.2,211.8z"/>
		<path class="st0" d="M96.8,216C96.8,216,96.7,216,96.8,216c-0.1,0,0,0.1,0,0.1C96.8,216,96.8,216,96.8,216z"/>
		<path class="st0" d="M133.3,231.5c0,0,0,0,0.1,0C133.3,231.4,133.3,231.4,133.3,231.5z"/>
		<path class="st0" d="M95,211.4c0,0-0.1,0.1-0.2,0.1c0,0,0.1,0,0,0C94.9,211.5,94.9,211.5,95,211.4C95,211.5,95.1,211.4,95,211.4
			L95,211.4z"/>
		<path class="st0" d="M133.8,232.1c0-0.1,0-0.1-0.1-0.2C133.7,232,133.7,232,133.8,232.1z"/>
		<path class="st0" d="M97.9,210.7C97.9,210.7,97.8,210.7,97.9,210.7C97.8,210.8,97.8,210.8,97.9,210.7L97.9,210.7z"/>
		<path class="st0" d="M97.4,211c0,0.1,0,0.1,0,0.1s0.1,0,0.2,0s0.1,0,0.1-0.1h0.1c0.1-0.1,0.2-0.1,0.2-0.2l0,0c0,0,0,0-0.1,0l0,0
			v0.1h-0.2C97.5,210.9,97.5,210.9,97.4,211C97.5,211,97.4,211,97.4,211z"/>
		<path class="st0" d="M97.8,210.8L97.8,210.8c-0.2,0-0.2,0.1-0.2,0.1C97.8,210.9,97.9,210.8,97.8,210.8z"/>
		<path class="st0" d="M97.1,211.7l0.1-0.1C97.2,211.6,97,211.7,97.1,211.7z"/>
		<path class="st0" d="M133.9,232.1c0.1-0.1,0.1-0.1,0-0.2C133.8,231.9,133.8,231.9,133.9,232.1z"/>
		<path class="st0" d="M97.6,211.4L97.6,211.4L97.6,211.4C97.6,211.4,97.6,211.4,97.6,211.4z"/>
		<path class="st0" d="M97.4,211.2L97.4,211.2c-0.2,0-0.2,0-0.2,0.1l0,0h0.1h0.1h0.1C97.5,211.3,97.6,211.3,97.4,211.2L97.4,211.2z"
			/>
		<path class="st0" d="M96.3,213.8L96.3,213.8C96.3,213.9,96.3,213.9,96.3,213.8z"/>
		<path class="st0" d="M90.7,210.7c0.1,0,0.2,0,0.3-0.1L90.7,210.7z"/>
		<path class="st0" d="M97.6,211.5L97.6,211.5C97.5,211.5,97.5,211.6,97.6,211.5z"/>
		<path class="st0" d="M123.6,231.8c0,0,0-0.1-0.1-0.2c-0.1,0-0.2,0-0.3,0.1l0.1,0.1h0.1C123.5,231.8,123.6,231.8,123.6,231.8z"/>
		<path class="st0" d="M91.8,213.4C91.9,213.4,91.9,213.3,91.8,213.4L91.8,213.4z"/>
		<path class="st0" d="M122.4,232.5c-0.1-0.1-0.2-0.1-0.2,0c0.1,0,0.1,0.1,0.1,0.1S122.3,232.5,122.4,232.5z"/>
		<path class="st0" d="M91.9,213C92,213,92,212.9,91.9,213L91.9,213z"/>
		<path class="st0" d="M93.6,211.7c-0.1,0-0.2,0.1-0.3,0.1c0,0,0,0,0-0.1c-0.1-0.1-0.1-0.1-1,0.3c0,0.1-0.1,0.1-0.2,0.1
			c0-0.1,0.8-0.5,0.8-0.5c-0.1,0-0.2,0.1-0.3,0.1c-0.1,0-0.1,0-0.1,0c-0.1,0-0.2,0-0.2,0c0.1,0,0.3-0.1,0.4-0.2
			c-0.1,0-0.2,0.1-0.4,0.1c0.2-0.1,0.5-0.1,0.7-0.2c-0.1,0-0.1,0-0.2,0h-0.3c-0.3,0.1-0.7,0.2-1,0.3h0.1c-0.1,0-0.1,0-0.2,0.1h-0.3
			c-0.1,0.1-0.2,0.1-0.3,0.3c0.1,0.1,0.2,0.1,0.3,0.1c0,0.1-0.1,0.3-0.3,0.2c-0.2-0.1-0.2-0.1-0.3-0.1c-0.3,0-0.4,0.1-0.6,0.3
			c0,0.1,0.1,0.1,0.1,0.1c0,0.1-0.1,0.1-0.3,0.2c-0.1,0.1-0.2,0.1-0.3,0.2c0.2,0,0.2,0,0.2,0.1h0.2l0,0l0,0H90
			c0.2,0,0.3-0.1,0.5-0.1h0.1l-0.1,0.1v0.1c0.1,0,0.3,0,0.4,0l0,0l0,0H91c0-0.1,0.1-0.1,0.1-0.1c-0.1,0-0.1,0-0.2,0
			c0.1-0.1,0.4-0.2,0.4-0.1v0.1c0.1-0.1,0.2-0.1,0.3-0.2c0-0.1,0.1-0.2,0.2-0.2h-0.1c0.1,0,0.3-0.2,0.3-0.2l1.3-0.6
			c0.7-0.2,0.6-0.3,0.5-0.3C93.7,211.7,93.6,211.7,93.6,211.7z"/>
		<path class="st0" d="M89.8,213.3L89.8,213.3C89.7,213.4,89.8,213.4,89.8,213.3L89.8,213.3L89.8,213.3z"/>
		<path class="st0" d="M125,229.8c0.1,0.2,0.3,0.4,0.3,0.6c0.1,0,0.1,0,0.2,0c0-0.2,0-0.4-0.1-0.6c0-0.1-0.1-0.1-0.1-0.2
			c0,0-0.1-0.1-0.1-0.2c0-0.1,0-0.1-0.1-0.1c0.1,0.2,0.1,0.2,0,0.3C125.1,229.6,125,229.7,125,229.8z"/>
		<path class="st0" d="M122.7,231.9C122.6,231.9,122.6,231.9,122.7,231.9c0.1,0.1,0.2,0.1,0.3,0.2c0,0,0,0,0.1,0s0.1,0,0.2-0.2v-0.1
			c-0.1-0.1-0.2-0.1-0.3-0.1C122.9,231.8,122.8,231.8,122.7,231.9z"/>
		<path class="st0" d="M91,213.5C91,213.4,90.9,213.5,91,213.5L91,213.5z"/>
		<path class="st0" d="M91.8,213.4C91.9,213.3,91.8,213.3,91.8,213.4L91.8,213.4z"/>
		<path class="st0" d="M90.4,213.8c0,0,0,0-0.1,0.1C90.4,213.9,90.4,213.9,90.4,213.8z"/>
		<path class="st0" d="M91.5,211.6L91.5,211.6c0.2,0,0.3-0.1,0.5-0.1c0,0,0.1,0,0.2,0c0.2-0.1,0.4-0.1,0.6-0.1c0.1,0,0.2,0,0.3,0
			c0.2,0,0.4-0.1,0.5-0.3l0.2-0.1c0-0.1-0.1-0.1,0-0.2c-0.2,0.1-0.4,0.2-0.6,0.2c0.1,0,0.1,0,0.1,0c-0.5,0.1-0.9,0.2-1.3,0.3
			c-0.1,0.1-0.3,0.1-0.4,0.2c-0.1,0-0.2,0-0.3,0.1L91.5,211.6C91.5,211.6,91.5,211.6,91.5,211.6z"/>
		<path class="st0" d="M90.8,213.6c0,0,0.1-0.1,0.2-0.1C90.8,213.5,90.7,213.5,90.8,213.6z"/>
		<path class="st0" d="M90.1,213.4C90.2,213.4,90.2,213.3,90.1,213.4L90.1,213.4z"/>
		<path class="st0" d="M91.8,213.5c-0.1,0-0.1,0.1-0.2,0.1C91.7,213.7,91.7,213.6,91.8,213.5z"/>
		<path class="st0" d="M91.2,213.2C91.1,213.3,91.2,213.3,91.2,213.2L91.2,213.2z"/>
		<path class="st0" d="M90.9,213.4L90.9,213.4C90.9,213.3,90.9,213.4,90.9,213.4L90.9,213.4z"/>
		<path class="st0" d="M131.9,231.9c0,0-0.1-0.1-0.2-0.1C131.7,231.9,131.8,231.9,131.9,231.9z"/>
		<path class="st0" d="M129.6,233.6c0,0,0,0.1,0.1,0.1C129.7,233.7,129.7,233.7,129.6,233.6z"/>
		<path class="st0" d="M133.7,231.6C133.6,231.6,133.6,231.6,133.7,231.6C133.6,231.6,133.7,231.6,133.7,231.6z"/>
		<path class="st0" d="M131.8,231.7c-0.1-0.1-0.2-0.2-0.2-0.3C131.5,231.6,131.6,231.7,131.8,231.7z"/>
		<path class="st0" d="M94.9,210.7c-0.1,0-0.2,0.1-0.3,0.1c0,0,0,0,0.5-0.1C95.1,210.7,95,210.7,94.9,210.7z"/>
		<path class="st0" d="M96.1,210.5l-0.1,0.1C96.1,210.6,96.2,210.5,96.1,210.5L96.1,210.5z"/>
		<path class="st0" d="M133.7,231.6C133.7,231.7,133.7,231.7,133.7,231.6C133.7,231.6,133.7,231.7,133.7,231.6z"/>
		<path class="st0" d="M94,212.6C94.1,212.5,94,212.5,94,212.6L94,212.6z"/>
		<path class="st0" d="M125.4,230.7C125.3,230.7,125.3,230.7,125.4,230.7c0.1,0.2,0.2,0.4,0.3,0.7h0.1c0,0.2,0,0.4,0.1,0.6
			c0,0,0.1,0.1,0.2,0.1s0.1-0.1,0.1-0.2h0.3c0-0.3-0.1-0.6-0.3-0.8c0-0.1,0-0.1,0-0.2c-0.1-0.2-0.2-0.3-0.4-0.4c0,0-0.1,0-0.1,0.1
			C125.6,230.8,125.6,230.9,125.4,230.7z"/>
		<path class="st0" d="M94.2,212L94.2,212c-0.2,0-0.3,0-0.4,0.1c-0.1,0-0.1,0-0.2,0.1h-0.1c0-0.1,0.1-0.2,0.2-0.2
			c-0.2,0-0.4,0.1-0.5,0.2c0,0.1-0.1,0.1-0.1,0.1c0,0.1-0.1,0.1-0.2,0.2c0,0.1-0.1,0.1-0.1,0.1c-0.1,0-0.1,0.1-0.2,0.1h0.1
			c0,0.1,0.1,0.1,0.1,0.1c0.1,0,0.1-0.1,0.2-0.1v0.1c0.1,0,0.1,0,0.2,0c0.2-0.1,0.3-0.2,0.6,0c0.1-0.1,0.2-0.2,0.3-0.2l0.1-0.1
			c-0.1,0-0.1,0.1-0.2,0.1c0,0,0,0-0.1,0s-0.1,0.1-0.2,0.1l0.3-0.2c0,0,0,0-0.2,0c0.1-0.1,0.3-0.1,0.4-0.1c0-0.1,0.1-0.1,0.1-0.1
			c0.1,0,0.1,0,0.1,0c0.1,0,0.1-0.1,0.2-0.1c-0.1,0-0.1,0-0.1,0s0,0,0.2-0.1C94.5,212.1,94.3,212,94.2,212z"/>
		<path class="st0" d="M125.8,229.4c-0.1,0-0.1,0-0.2,0C125.7,229.5,125.7,229.5,125.8,229.4z"/>
		<path class="st0" d="M94.1,211.1h0.5c0,0.1,0,0.1,0,0.1h0.1c0.2,0,0.3,0,0.5-0.1h0.1c0.1,0,0.1,0,0.1,0l0,0l0,0c0,0,0,0,0.1,0l0,0
			l0,0c0,0,0,0,0.4-0.1c0-0.1,0.1-0.1,0.1-0.1h-0.4c-0.1,0-0.2,0.1-0.3,0.1h-0.1c0.1,0,0.1-0.1,0.2-0.1c-0.1,0-0.1,0-0.1,0
			c0.1-0.1,0.1-0.1,0.2-0.1h0.1c0,0.1,0,0,0.1,0l0,0c0.1-0.1,0.2-0.1,0.3-0.1c0-0.1,0.1-0.1,0.2-0.4H96c0,0-0.1,0-0.2,0h-0.3
			c-0.1,0-0.3,0.1-0.4,0.1c0.1,0,0.1,0,0.2,0l-0.2,0.1c0.1,0,0.2,0,0.2,0c-0.1,0.1-0.1,0.1-0.1,0.1s0,0-0.1,0.1l0,0
			c0.1,0,0.2-0.1,0.3-0.1c0,0.1-0.1,0.1-0.1,0.1c0.1,0,0.1,0,0.2,0l0,0c-0.1,0-0.1,0-0.2,0l-0.5,0.2l-0.2,0.1c0,0,0,0-0.1-0.1l0,0
			c0,0,0,0,0.2,0l0,0c-0.1,0-0.2,0-0.3-0.1l0.1,0.1C94.3,210.9,94.2,210.9,94.1,211.1C93.9,211.1,93.9,211.1,94.1,211.1z"/>
		<path class="st0" d="M128.4,235.5L128.4,235.5L128.4,235.5C128.4,235.4,128.4,235.4,128.4,235.5z"/>
		<path class="st0" d="M120.5,98.3V81.7h-12.3v-2.1c2.6-1.1,4.3-3.2,4.3-5.7c0-3.5-3.6-6.4-8.1-6.4s-8.1,2.8-8.1,6.4
			c0,2.5,1.8,4.6,4.3,5.7v2.1H88.3v16.6h5.2v-9.6h1.9v31.2h-2.5v6.5h9.4v-20.3h4.1v20.3h9.4v-6.5h-2.4V88.7h1.9v9.6
			C115.3,98.3,120.5,98.3,120.5,98.3z"/>
		<path class="st0" d="M199.2,204.6c-6.6-12.6-15.6-23.7-26.6-32.8l32.3-32.2V58.1L146.3-0.4h-40.8v31.6h10.4v-0.1h17.7L174,71.5V86
			h10.4V67.1l-46.6-46.4h-22V10h26.1l52.6,52.4v34h-29.7V74.6l-35-34.9H81L46,74.6V86h-9.2V71.4l40.5-40.3h17.6V20.7h-22L26.4,67.1
			v29.3h19.7v26.9l35,34.9h14v10.1c-39,4.7-69.7,35.4-74.4,74.4c-5.6,46.8,27.7,89.2,74.4,94.8V327c-36-5.1-63.3-35.3-64.5-71.7h9.6
			c1.2,32.1,25.5,58.5,57.3,62.4c35.8,4.3,68.4-21.1,72.8-56.9c4.3-35.8-21.1-68.4-56.9-72.8c-35.8-4.3-68.4,21.1-72.8,56.9h-9.7
			c3.9-36.3,33.4-64.4,69.8-66.7h37.2l46.5-46.3v-14.7H174v10.4l-40.4,40.2h-28.1v-20H85.4L56.5,119V78.9l28.8-28.8h40.2l28.9,28.8
			V119l-28.9,28.8h-9.6v10.4h14l35-34.9v-16.5h29.7v28.5l-52.2,52.1l5.2,3.5c24.4,16.5,36.9,45.8,31.8,74.8H190
			c4.6-30.3-7.4-60.7-31.5-79.7l6.8-6.8c10.2,8.3,18.6,18.5,24.7,30.2c5.3,10.4,8.7,21.7,10,33.3c5.6,52.1-32,98.9-84.1,104.5v-9.7
			c34.1-4.2,62.4-28.4,71.8-61.4h-10.9c-10.1,30.8-38.9,51.6-71.3,51.6v20c-15.2,0.1-30.1-3.6-43.6-10.5C15.3,313.2-3,256,21,209.4
			c6.7-13,16.4-24.2,28.2-32.9c5.3-3.9,10.9-7.2,16.9-9.9l6.8-3.1l-36.1-35.9v-20.8H26.4v25.1l28.7,28.5c-2.9,1.6-5.7,3.3-8.4,5.1
			l-30.3-30.2V62.4L68.9,10H95V-0.4H64.6L5.9,58.1v81.5l32.4,32.1c-38.5,31.7-49.6,86-26.6,130.2c26.9,51.8,90.6,72,142.4,45.1
			C205.9,320.1,226.1,256.4,199.2,204.6z M105.1,198.1c30.3-0.1,54.9,24.4,55,54.7s-24.4,54.9-54.7,55c-30.3,0-54.9-24.6-55-54.9
			C50.4,222.7,74.9,198.2,105.1,198.1z"/>
	</g>
</g>
</svg>
