<?xml version="1.0" encoding="utf-8"?>
<!-- Generator: Adobe Illustrator 21.1.0, SVG Export Plug-In . SVG Version: 6.00 Build 0)  -->
<svg version="1.1" id="Capa_1" xmlns="http://www.w3.org/2000/svg" xmlns:xlink="http://www.w3.org/1999/xlink" x="0px" y="0px"
	 viewBox="0 0 120 120" style="enable-background:new 0 0 120 120;" xml:space="preserve">
<style type="text/css">
	.st0{opacity:0.15;stroke:#FFFFFF;stroke-width:6;stroke-linejoin:round;enable-background:new    ;}
	.st1{fill:none;stroke:#FFFFFF;stroke-width:6;stroke-linejoin:round;}
	.st2{display:none;}
	.st3{display:inline;fill:#FFFFFF;}
</style>
<path class="st0" d="M115,57.2V38.7c0-0.8-0.3-1.6-0.9-2.1L83.5,5.9C82.9,5.3,82.1,5,81.3,5H38.7c-0.8,0-1.6,0.3-2.1,0.9L5.9,36.5
	C5.3,37.1,5,37.9,5,38.7v42.7c0,0.8,0.3,1.6,0.9,2.1l30.7,30.7c0.6,0.6,1.3,0.9,2.1,0.9h42.7c0.8,0,1.6-0.3,2.1-0.9l30.7-30.7
	c0.6-0.6,0.9-1.3,0.9-2.1L115,57.2"/>
<path class="st1" d="M105,57.7V42.8c0-0.8-0.3-1.6-0.9-2.1L79.3,15.9C78.8,15.3,78,15,77.2,15H42.7c-0.8,0-1.6,0.3-2.1,0.9
	L15.9,40.6C15.3,41.2,15,42,15,42.8v34.5c0,0.8,0.3,1.6,0.9,2.1l24.8,24.8c0.6,0.6,1.3,0.9,2.1,0.9h34.5c0.8,0,1.6-0.3,2.1-0.9
	l24.8-24.8c0.6-0.6,0.9-1.3,0.9-2.1L105,57.7"/>
<g class="st2">
	<rect x="57.1" y="40" class="st3" width="5.9" height="40"/>
	<rect x="40" y="57.1" class="st3" width="40" height="5.9"/>
</g>
</svg>
