<svg version="1.1" id="Layer_1" xmlns="http://www.w3.org/2000/svg" xmlns:xlink="http://www.w3.org/1999/xlink" x="0px" y="0px"
	 viewBox="0 0 93.6 32" style="enable-background:new 0 0 93.6 32;" xml:space="preserve">
<style type="text/css">
	.st0{fill:#FFF;}
</style>
<path class="st0" d="M53.2,12.2L52.8,16h-3.1v11h-4.6V16h-2.3v-3.8h2.3V9.9c0-3.1,1.3-4.9,5-4.9h3.1v3.8h-1.9
	c-1.4,0-1.5,0.5-1.5,1.5v1.9L53.2,12.2L53.2,12.2z"/>
<path class="st0" d="M25.6,11.1c0,0.2,0,0.4,0,0.6c0,6.6-5,14.1-14.2,14.1c-2.8,0-5.4-0.8-7.6-2.2c0.4,0,0.8,0.1,1.2,0.1
	c2.3,0,4.5-0.8,6.2-2.1c-2.2,0-4-1.5-4.7-3.4c0.3,0.1,0.6,0.1,0.9,0.1c0.4,0,0.9-0.1,1.3-0.2c-2.3-0.5-4-2.5-4-4.9c0,0,0,0,0-0.1
	c0.7,0.4,1.4,0.6,2.2,0.6c-1.3-0.9-2.2-2.4-2.2-4.1c0-0.9,0.2-1.8,0.7-2.5c2.5,3,6.1,5,10.3,5.2c-0.1-0.4-0.1-0.8-0.1-1.1
	c0-2.7,2.2-5,5-5c1.4,0,2.7,0.6,3.6,1.6c1.1-0.2,2.2-0.6,3.2-1.2c-0.4,1.2-1.2,2.1-2.2,2.7c1-0.1,2-0.4,2.9-0.8
	C27.5,9.6,26.6,10.4,25.6,11.1z"/>
<g>
	<circle class="st0" cx="84.7" cy="10.1" r="1.3"/>
	<path class="st0" d="M78.8,10.4c-3.1,0-5.7,2.5-5.7,5.7s2.5,5.7,5.7,5.7s5.7-2.5,5.7-5.7S82,10.4,78.8,10.4z M78.8,19.7
		c-2,0-3.7-1.6-3.7-3.7s1.6-3.7,3.7-3.7s3.7,1.6,3.7,3.7S80.9,19.7,78.8,19.7z"/>
	<path class="st0" d="M83.5,5.1h-9.3c-3.5,0-6.3,2.8-6.3,6.3v9.3c0,3.5,2.8,6.3,6.3,6.3h9.3c3.5,0,6.3-2.8,6.3-6.3v-9.3
		C89.8,7.9,86.9,5.1,83.5,5.1z M87.8,20.7c0,2.4-1.9,4.4-4.4,4.4H74c-2.4,0-4.4-1.9-4.4-4.4v-9.4c0-2.4,1.9-4.4,4.4-4.4h9.4
		c2.4,0,4.4,1.9,4.4,4.4V20.7z"/>
</g>
</svg>
